<svg id="Capa_1" enable-background="new 0 0 512 512" height="512" viewBox="0 0 512 512" width="512" xmlns="http://www.w3.org/2000/svg" xmlns:xlink="http://www.w3.org/1999/xlink"><linearGradient id="SVGID_1_" gradientUnits="userSpaceOnUse" x1="256" x2="256" y1="512" y2="0"><stop offset="0" stop-color="#c3ffe8"/><stop offset=".9973" stop-color="#f0fff4"/></linearGradient><linearGradient id="SVGID_2_" gradientUnits="userSpaceOnUse" x1="256" x2="256" y1="389.5" y2="158.348"><stop offset="0" stop-color="#9cffac"/><stop offset="1" stop-color="#00b59c"/></linearGradient><g><g><circle cx="256" cy="256" fill="url(#SVGID_1_)" r="256"/></g><g><g><path d="m131.65 229.3h35.529c14.694 0 26.646-11.977 26.646-26.7 0-12.029-7.98-22.224-18.909-25.553-3.331-10.951-13.497-18.947-25.501-18.947-12.005 0-22.171 7.996-25.501 18.947-10.929 3.329-18.909 13.524-18.909 25.553-.001 14.723 11.952 26.7 26.645 26.7zm195.407-35.6h35.529c14.694 0 26.646-11.977 26.646-26.7 0-12.029-7.98-22.224-18.909-25.553-3.331-10.951-13.497-18.947-25.501-18.947-12.005 0-22.171 7.996-25.501 18.947-10.929 3.329-18.909 13.524-18.909 25.553-.001 14.723 11.951 26.7 26.645 26.7zm78.447 181.963-62.754-94.32c-1.568.593-3.146 1.052-4.747 1.235-10.235 1.278-17.001-6.258-21.945-11.673-1.787-1.947-5.482-6.006-6.766-6.006s-4.996 4.059-6.766 6.006c-4.788 5.258-10.756 11.794-19.881 11.794s-15.093-6.536-19.881-11.794c-1.77-1.947-5.482-6.006-6.766-6.006s-4.996 4.059-6.766 6.006c-4.788 5.258-10.756 11.794-19.881 11.794s-15.093-6.536-19.881-11.794c-1.77-1.947-5.482-6.006-6.766-6.006s-4.996 4.059-6.766 6.006c-4.597 5.032-10.773 11.803-19.829 11.803-.625 0-1.266-.035-1.908-.104-1.626-.167-3.22-.863-4.821-1.463l-62.888 94.522c-1.822 2.729-1.995 6.24-.434 9.135 1.544 2.894 4.545 4.702 7.824 4.702h284.229c3.279 0 6.28-1.808 7.824-4.702 1.565-2.894 1.391-6.406-.431-9.135zm-202.797-128.563c9.125 0 15.093 6.536 19.881 11.794 1.77 1.947 5.482 6.006 6.766 6.006s4.996-4.059 6.766-6.006c4.788-5.258 10.756-11.794 19.881-11.794s15.093 6.536 19.881 11.794c1.769 1.947 5.482 6.006 6.766 6.006s4.996-4.059 6.766-6.006c4.788-5.258 10.756-11.794 19.881-11.794 6.586 0 11.497 3.443 15.548 7.323l-61.451-92.36c-3.296-4.954-11.484-4.954-14.78 0l-61.442 92.351c4.038-3.874 8.947-7.314 15.537-7.314z" fill="url(#SVGID_2_)"/></g></g></g></svg>