<?xml version="1.0" encoding="utf-8"?>
<!-- Generator: Adobe Illustrator 16.0.0, SVG Export Plug-In . SVG Version: 6.00 Build 0)  -->
<!DOCTYPE svg PUBLIC "-//W3C//DTD SVG 1.1//EN" "http://www.w3.org/Graphics/SVG/1.1/DTD/svg11.dtd">
<svg version="1.1" id="Layer_1" xmlns="http://www.w3.org/2000/svg" xmlns:xlink="http://www.w3.org/1999/xlink" x="0px" y="0px"
	 width="276px" height="212.598px" viewBox="0 -48.299 276 212.598" enable-background="new 0 -48.299 276 212.598"
	 xml:space="preserve">
<title>micros_services</title>
<desc>Created with Sketch.</desc>
<g id="Screens">
	<g id="homepage" transform="translate(-630.000000, -1360.000000)">
		<g id="micros_services" transform="translate(630.000000, 1360.000000)">
			<g id="back">
				<path id="Shape" opacity="0.15" enable-background="new    " d="M252.82,46.14l8.654,25.003
					c0.608,1.758-0.637,3.457-3.239,4.445l-37.118,14.021c-1.441,0.518-2.965,0.8-4.506,0.838c-1.666,0.06-3.332-0.104-4.945-0.488
					l-45.75-10.935c-3.21-0.768-5.588-2.34-6.196-4.092l-8.652-25.018c-0.607-1.758,0.638-3.457,3.239-4.446l37.112-14.047
					c1.44-0.516,2.964-0.799,4.507-0.836c1.664-0.061,3.33,0.104,4.945,0.486l45.765,10.956
					C249.836,42.816,252.213,44.388,252.82,46.14z M140.718,48.299L94.954,37.343c-1.615-0.383-3.281-0.547-4.946-0.486
					c-1.541,0.037-3.065,0.319-4.506,0.836L48.389,51.739c-2.608,0.984-3.847,2.688-3.239,4.446l8.653,25.003
					c0.608,1.757,2.98,3.323,6.197,4.091l45.765,10.956c1.615,0.383,3.28,0.548,4.945,0.487c1.542-0.037,3.065-0.321,4.507-0.836
					L152.33,81.84c2.607-0.986,3.848-2.688,3.237-4.445l-8.652-25.004c-0.635-1.752-3.009-3.318-6.219-4.064L140.718,48.299z
					 M213.39,94.156L167.625,83.2c-1.617-0.385-3.283-0.548-4.947-0.488c-1.543,0.038-3.065,0.32-4.507,0.836l-37.14,14.053
					c-2.609,0.985-3.849,2.688-3.24,4.445l8.653,25.003c0.608,1.758,2.979,3.326,6.196,4.092l45.765,10.956
					c1.615,0.384,3.281,0.547,4.947,0.488c1.541-0.037,3.064-0.321,4.506-0.837l37.094-14.031c2.609-0.985,3.85-2.688,3.24-4.445
					L219.54,98.27c-0.604-1.779-2.98-3.367-6.19-4.113H213.39z M107.167,100.433L61.402,89.477
					c-1.615-0.382-3.281-0.547-4.946-0.487c-1.542,0.038-3.065,0.32-4.506,0.838l-37.124,14.072
					c-2.608,0.984-3.847,2.689-3.239,4.447l8.652,25.003c0.609,1.757,2.98,3.322,6.197,4.091l45.759,10.918
					c1.615,0.383,3.281,0.548,4.946,0.486c1.542-0.036,3.065-0.32,4.507-0.836l37.111-14.046c2.609-0.986,3.849-2.688,3.24-4.445
					l-8.653-25.003C112.727,102.772,110.355,101.205,107.167,100.433z"/>
				<g id="Group" transform="translate(89.434341, 14.230496)">
					<path id="Shape_1_" fill="#182D3D" d="M172.084,37.996V17.635L130.24-10.449L93.467-9.961l-32.109,4.52v21.123l0.141,0.143
						c0,0.293,0.049,0.585,0.146,0.863l8.652,25.003c0.607,1.757,2.979,3.324,6.197,4.092l45.765,10.956
						c1.615,0.382,3.279,0.546,4.945,0.485c1.541-0.037,3.066-0.319,4.506-0.836l37.112-14.046
						C171.352,41.373,172.591,39.716,172.084,37.996z"/>
					<path id="Shape_2_" fill="#4D6982" d="M157.19-12.301l-45.765-10.956c-1.614-0.383-3.28-0.547-4.946-0.487
						c-1.54,0.037-3.064,0.32-4.506,0.836L64.861-8.861c-2.608,0.985-3.848,2.689-3.238,4.446l8.652,25.002
						c0.608,1.758,2.979,3.324,6.196,4.092l45.765,10.956c1.615,0.383,3.281,0.547,4.947,0.486c1.541-0.037,3.064-0.319,4.507-0.836
						l37.111-14.047c2.609-0.984,3.848-2.688,3.239-4.446L163.386-8.21C162.779-9.967,160.402-11.533,157.19-12.301z"/>
				</g>
				<g id="Group_1_" transform="translate(21.637341, 18.296352)">
					<path id="Shape_3_" fill="#182D3D" d="M133.93,40.186V19.825L92.087-8.259L55.313-7.771l-32.11,4.52v21.107l0.141,0.143
						c0,0.293,0.05,0.585,0.146,0.863l8.652,25.002c0.609,1.758,2.98,3.324,6.197,4.092l45.764,10.956
						c1.616,0.383,3.281,0.548,4.946,0.486c1.542-0.036,3.066-0.318,4.507-0.836l37.111-14.046
						C133.222,43.558,134.454,41.901,133.93,40.186z"/>
					<path id="Shape_4_" fill="#4D6982" d="M119.059-10.116L73.294-21.072c-1.616-0.383-3.281-0.547-4.946-0.487
						c-1.542,0.037-3.065,0.319-4.507,0.836L26.73-6.676c-2.608,0.984-3.848,2.688-3.239,4.446l8.652,25.003
						c0.609,1.757,2.98,3.324,6.197,4.091L84.104,37.82c1.616,0.384,3.281,0.548,4.946,0.487c1.542-0.037,3.066-0.32,4.507-0.836
						l37.111-14.047c2.608-0.984,3.849-2.688,3.24-4.446l-8.652-25.002C124.643-7.777,122.269-9.349,119.059-10.116z"/>
				</g>
				<g id="Group_2_" transform="translate(68.157623, 47.773809)">
					<path id="Shape_5_" fill="#182D3D" d="M160.062,56.565V36.198L118.218,8.121L81.445,8.607l-32.109,4.52v21.125l0.141,0.143
						c0.001,0.292,0.05,0.584,0.146,0.861l8.652,25.003c0.608,1.757,2.98,3.325,6.196,4.091l45.766,10.957
						c1.615,0.384,3.28,0.547,4.945,0.487c1.541-0.036,3.066-0.32,4.507-0.836l37.105-14.067
						C159.353,59.936,160.593,58.28,160.062,56.565z"/>
					<path id="Shape_6_" fill="#4D6982" d="M145.192,6.263L99.427-4.694C97.81-5.077,96.144-5.241,94.48-5.18
						c-1.542,0.037-3.064,0.32-4.506,0.836L52.862,9.703c-2.608,0.984-3.848,2.688-3.239,4.446l8.652,25.003
						c0.608,1.757,2.98,3.324,6.196,4.091l45.766,10.956c1.615,0.383,3.28,0.547,4.945,0.487c1.541-0.037,3.066-0.319,4.507-0.836
						l37.112-14.047c2.608-0.984,3.847-2.689,3.24-4.447l-8.653-25.002C150.778,8.597,148.402,7.03,145.192,6.263z"/>
				</g>
				<g id="Group_3_" transform="translate(0.000000, 51.839665)">
					<path id="Shape_7_" fill="#182D3D" d="M122.017,58.777V38.41L80.172,10.327l-36.774,0.486l-32.109,4.521v21.123l0.14,0.142
						c0.002,0.293,0.051,0.585,0.147,0.863l8.652,25.003c0.608,1.758,2.98,3.324,6.197,4.092L72.19,77.513
						c1.616,0.383,3.281,0.546,4.946,0.486c1.542-0.038,3.065-0.318,4.507-0.836l37.112-14.047
						C121.301,62.148,122.54,60.491,122.017,58.777z"/>
					<path id="Shape_8_" fill="#4D6982" d="M107.167,8.475L61.402-2.481c-1.615-0.384-3.281-0.547-4.946-0.487
						c-1.542,0.037-3.065,0.32-4.506,0.836L14.837,11.913c-2.608,0.985-3.848,2.689-3.239,4.447l8.653,25.003
						c0.608,1.757,2.98,3.324,6.196,4.091L72.213,56.41c1.615,0.383,3.28,0.548,4.946,0.487c1.542-0.037,3.066-0.32,4.505-0.836
						l37.085-14.058c2.608-0.984,3.848-2.689,3.239-4.447l-8.652-25.003C112.727,10.809,110.355,9.241,107.167,8.475z"/>
				</g>
				<g id="Group_4_" transform="translate(109.629193, 0.000000)">
					<polygon id="Shape_9_" fill="#83C21D" points="94.11,19.406 115.505,-20.903 72.714,-20.903 					"/>
					<ellipse id="Oval" fill="#B6E83D" cx="94.11" cy="-21.305" rx="21.395" ry="10.474"/>
				</g>
				<g id="Group_5_" transform="translate(45.438415, 4.065856)">
					<path id="Shape_10_" fill="#3DD1A5" d="M58.056-29.706l-21.598,47.55c0,5.949,9.666,10.776,21.598,10.776
						s21.599-4.821,21.599-10.776L58.056-29.706z"/>
					<path id="Shape_11_" opacity="0.15" enable-background="new    " d="M79.648,17.844L58.05-29.706l8.388,57.479
						C74.2,26.137,79.648,22.305,79.648,17.844z"/>
				</g>
				<g id="Group_6_" transform="translate(90.155586, 41.675025)">
					<ellipse id="Oval_1_" fill="#EB8244" cx="86.143" cy="14.299" rx="24.279" ry="22.812"/>
					<path id="Shape_12_" opacity="0.15" enable-background="new    " d="M103.369-1.77c4.033,10.067,0.03,21.413-9.602,27.229
						c-9.635,5.812-22.281,4.513-30.348-3.121c-0.107-0.269-0.209-0.528-0.306-0.814c3.169,8.932,11.852,15.117,21.86,15.572
						c10.009,0.454,19.287-4.915,23.358-13.517C112.404,14.976,110.432,4.908,103.369-1.77L103.369-1.77z"/>
				</g>
				<g id="Group_7_" transform="translate(22.719208, 36.931526)">
					<polyline id="Shape_13_" fill="#8089FF" points="62.798,-3.257 43.381,-11.349 23.969,-3.257 23.975,-3.251 23.969,-3.251 
						23.969,43.02 43.381,51.11 62.798,43.02 62.798,-3.251 62.794,-3.251 62.798,-3.257 					"/>
					<polyline id="Shape_14_" opacity="0.15" enable-background="new    " points="62.798,-3.251 62.798,-3.251 43.381,4.836 
						43.381,51.11 62.798,43.02 62.798,-3.251 					"/>
					<polyline id="Shape_15_" opacity="0.15" fill="#FFFFFF" enable-background="new    " points="43.381,-11.349 23.969,-3.257 
						43.381,4.836 62.798,-3.257 43.381,-11.349 					"/>
				</g>
			</g>
		</g>
	</g>
</g>
</svg>
