<svg height="511pt" viewBox="-1 1 511 511.999" width="511pt" xmlns="http://www.w3.org/2000/svg" xmlns:xlink="http://www.w3.org/1999/xlink"><linearGradient id="a"><stop offset="0" stop-color="#ecf7ff"/><stop offset="1" stop-color="#c2e0ff"/></linearGradient><linearGradient id="b" gradientUnits="userSpaceOnUse" x1="257.9865200082" x2="375.4309375314" xlink:href="#a" y1="70.5254201078" y2="284.4836861606"/><linearGradient id="c"><stop offset=".0029" stop-color="#c2e0ff" stop-opacity="0"/><stop offset=".0763" stop-color="#bfdcfd" stop-opacity=".07451"/><stop offset="1" stop-color="#9eb2e7"/></linearGradient><linearGradient id="d" gradientUnits="userSpaceOnUse" x1="358.0346759388" x2="232.4442345232" xlink:href="#c" y1="105.3790821428" y2="387.570111632"/><linearGradient id="e" gradientUnits="userSpaceOnUse" x1="60.8891239454" x2="118.5656475518" xlink:href="#a" y1="225.2843132724" y2="330.3583035194"/><linearGradient id="f" gradientUnits="userSpaceOnUse" x1="110.022371724" x2="48.345419732" xlink:href="#c" y1="242.4007818036" y2="380.9835801744"/><linearGradient id="g" gradientUnits="userSpaceOnUse" x1="194.4781131116" x2="252.154636718" xlink:href="#a" y1="363.1745058554" y2="468.2485964946"/><linearGradient id="h" gradientUnits="userSpaceOnUse" x1="243.6113608902" x2="181.9344088982" xlink:href="#c" y1="380.2910747788" y2="518.8738731496"/><path d="m499.777344 177.972656h-22.777344l6.480469-6.480468c1.664062-1.664063 2.582031-3.875 2.582031-6.230469 0-2.351563-.917969-4.566407-2.582031-6.230469-1.664063-1.664062-3.875-2.582031-6.230469-2.582031s-4.566406.917969-6.230469 2.582031l-18.941406 18.941406h-19.425781l19.222656-19.222656c1.667969-1.667969 2.582031-3.878906 2.582031-6.234375 0-2.351563-.914062-4.566406-2.578125-6.230469-1.664062-1.664062-3.878906-2.582031-6.234375-2.582031-2.351562 0-4.566406.917969-6.226562 2.582031l-29.9375 29.933594c-4.570313-3.578125-11.890625-6.195312-21.863281-7.820312l5.089843-2.164063c4.472657-1.902344 6.566407-7.085937 4.667969-11.554687-.921875-2.167969-2.628906-3.847657-4.816406-4.730469-2.179688-.882813-4.578125-.855469-6.742188.0625l-3.148437 1.339843c5.070312-7.398437 7.949219-13.785156 8.601562-19.089843h42.335938c4.859375 0 8.8125-3.953125 8.8125-8.8125s-3.953125-8.8125-8.8125-8.8125h-27.1875l13.734375-13.734375h26.789062c4.859375 0 8.8125-3.953125 8.8125-8.8125s-3.953125-8.816406-8.8125-8.816406h-9.164062l16.101562-16.101563c1.667969-1.664063 2.582032-3.878906 2.582032-6.230469 0-2.355468-.914063-4.570312-2.578126-6.230468-1.664062-1.667969-3.878906-2.582032-6.234374-2.582032-2.351563 0-4.566407.914063-6.230469 2.582032l-16.101563 16.101562v-9.164062c0-4.859376-3.953125-8.8125-8.816406-8.8125-4.859375 0-8.8125 3.953124-8.8125 8.8125v26.792968l-13.734375 13.734375v-27.191406c0-4.859375-3.953125-8.8125-8.8125-8.8125s-8.8125 3.953125-8.8125 8.8125v42.332031c-5.761719.703125-12.789063 4.027344-20.988281 9.925782l2.070312-5.125c1.816406-4.507813-.371094-9.652344-4.878906-11.472657-4.503906-1.8125-9.648438.371094-11.464844 4.875l-1.28125 3.171875c-1.644531-8.816406-4.125-15.371094-7.414062-19.582031l29.933594-29.933594c1.664062-1.664062 2.582031-3.875 2.582031-6.230469 0-2.355468-.917969-4.566406-2.578125-6.230468-1.667969-1.664063-3.878906-2.582032-6.234375-2.582032s-4.566407.917969-6.230469 2.582032l-19.226562 19.226562v-19.425781l18.941406-18.941406c1.664062-1.664063 2.582031-3.878907 2.582031-6.234375 0-2.351563-.917969-4.566406-2.578125-6.230469-1.664062-1.664063-3.878906-2.582031-6.234375-2.582031s-4.566406.917968-6.230469 2.582031l-6.480468 6.480469v-22.777344c0-4.859375-3.953126-8.8125-8.8125-8.8125-4.859376 0-8.8125 3.953125-8.8125 8.8125v22.777344l-6.476563-6.480469c-1.667969-1.664063-3.878906-2.582031-6.234375-2.582031s-4.566406.917968-6.230469 2.582031c-1.664062 1.664063-2.582031 3.875-2.582031 6.230469 0 2.355468.917969 4.566406 2.582031 6.230468l18.941407 18.941407v19.425781l-19.222657-19.222656c-1.664062-1.667969-3.878906-2.582032-6.234375-2.582032-2.355468 0-4.566406.914063-6.230468 2.578126-1.664063 1.667968-2.582032 3.878906-2.582032 6.234374 0 2.351563.917969 4.566407 2.582032 6.230469l29.933593 29.933594c-3.578125 4.570313-6.195312 11.890625-7.820312 21.863281l-2.164063-5.089844c-.921875-2.167968-2.632812-3.847656-4.8125-4.726562-2.183594-.882812-4.582031-.859375-6.746094.0625-2.164062.921875-3.84375 2.628906-4.722656 4.8125-.882812 2.179688-.859375 4.578125.058594 6.742188l1.335938 3.144531c-7.398438-5.070313-13.78125-7.949219-19.085938-8.597657v-42.335937c0-4.859375-3.953125-8.8125-8.8125-8.8125s-8.8125 3.953125-8.8125 8.8125v27.191406l-13.734375-13.734375v-26.792968c0-4.859376-3.957031-8.8125-8.8125-8.8125-4.863281 0-8.816406 3.953124-8.816406 8.8125v9.164062l-16.101563-16.101562c-1.664062-1.664063-3.878906-2.582032-6.230468-2.582032-2.355469 0-4.570313.917969-6.230469 2.582032-1.667969 1.664062-2.582031 3.875-2.582031 6.230468 0 2.355469.914062 4.566406 2.582031 6.230469l16.101562 16.105469h-9.164062c-4.859375 0-8.8125 3.953125-8.8125 8.8125s3.953125 8.8125 8.8125 8.8125h26.789062l13.734375 13.734375h-27.1875c-4.859375 0-8.8125 3.953125-8.8125 8.8125s3.953125 8.8125 8.8125 8.8125h42.332032c.703124 5.765625 4.023437 12.789062 9.925781 20.988281l-5.128907-2.070312c-4.507812-1.816407-9.652343.375-11.46875 4.875-.878906 2.183593-.859374 4.582031.0625 6.746093.921876 2.167969 2.628907 3.84375 4.8125 4.726563l3.167969 1.277344c-8.816406 1.644531-15.367187 4.125-19.578125 7.414062l-29.933594-29.933594c-1.664062-1.664062-3.878906-2.582031-6.234374-2.582031-2.351563 0-4.566407.917969-6.226563 2.582031-1.667969 1.664063-2.582031 3.878906-2.582031 6.230469 0 2.355469.914062 4.566406 2.582031 6.230469l19.222656 19.226562h-19.425781l-18.941406-18.941406c-1.664063-1.664062-3.875-2.582031-6.230469-2.582031s-4.566406.917969-6.230469 2.582031c-1.664062 1.664062-2.582031 3.878906-2.582031 6.230469 0 2.355469.917969 4.570312 2.582031 6.230469l6.480469 6.480468h-22.777344c-4.859375 0-8.8125 3.953125-8.8125 8.8125s3.953125 8.8125 8.8125 8.8125h22.777344l-6.480469 6.480469c-1.664062 1.664063-2.582031 3.878906-2.582031 6.230469 0 2.355468.917969 4.566406 2.582031 6.230468 1.664063 1.667969 3.878906 2.582032 6.230469 2.582032 2.355469 0 4.570313-.914063 6.230469-2.582032l18.941406-18.941406h19.425781l-19.222656 19.226563c-1.667969 1.664062-2.582031 3.878906-2.582031 6.230469 0 2.355468.914062 4.566406 2.582031 6.230468 1.664063 1.667969 3.875 2.582032 6.230469 2.582032 2.351562 0 4.566406-.914063 6.230468-2.582032l29.933594-29.933594c4.570313 3.578126 11.890625 6.199219 21.863282 7.824219l-5.089844 2.164063c-4.472656 1.898437-6.5625 7.082031-4.664063 11.554687 1.382813 3.261719 4.566407 5.367188 8.113281 5.367188 1.1875 0 2.347657-.238281 3.441407-.703125l3.148437-1.335938c-5.070312 7.398438-7.949218 13.78125-8.601562 19.085938h-42.335938c-4.859375 0-8.8125 3.953125-8.8125 8.8125s3.953125 8.8125 8.8125 8.8125h27.191406l-13.734374 13.738281h-26.792969c-4.859375 0-8.8125 3.953125-8.8125 8.8125s3.953125 8.8125 8.8125 8.8125h9.164062l-16.101562 16.101563c-1.664063 1.664062-2.582031 3.878906-2.582031 6.234374 0 2.351563.914062 4.566407 2.578124 6.226563 1.664063 1.667969 3.878907 2.585937 6.234376 2.585937 2.355468 0 4.566406-.917968 6.230468-2.582031l16.105469-16.105469v9.164063c0 4.859375 3.953125 8.8125 8.8125 8.8125s8.8125-3.953125 8.8125-8.8125v-26.789063l13.734375-13.734374v27.1875c0 4.859374 3.953125 8.8125 8.8125 8.8125s8.8125-3.953126 8.8125-8.8125v-42.3125c5.757812-.707032 12.785156-4.039063 20.988281-9.941407l-2.066406 5.125c-1.820313 4.503907.367187 9.652344 4.875 11.46875 1.054687.425781 2.160156.644531 3.292969.644531 3.613281 0 6.820312-2.167968 8.175781-5.519531l1.277344-3.167969c1.644531 8.816407 4.125 15.367188 7.417969 19.578126l-29.9375 29.9375c-1.664063 1.664062-2.582032 3.875-2.582032 6.230468 0 2.355469.917969 4.566406 2.582032 6.230469 1.664062 1.664063 3.875 2.582031 6.230468 2.582031 2.355469 0 4.570313-.917968 6.230469-2.582031l19.226563-19.226563v19.425782l-18.941407 18.941406c-1.664062 1.664062-2.582031 3.878906-2.582031 6.230469 0 2.355469.917969 4.570312 2.582031 6.230469 1.664063 1.667968 3.875 2.582031 6.230469 2.582031s4.566406-.914063 6.230469-2.578125l6.480469-6.480469v22.773437c0 4.859376 3.953124 8.8125 8.8125 8.8125 4.859374 0 8.8125-3.953124 8.8125-8.8125v-22.773437l6.480468 6.476563c1.664063 1.664062 3.875 2.582031 6.230469 2.582031s4.570313-.917969 6.230469-2.582031c1.664062-1.664063 2.582031-3.875 2.582031-6.230469s-.917969-4.566407-2.582031-6.230469l-18.941406-18.941406v-19.425782l19.226562 19.226563c1.660156 1.664063 3.875 2.582031 6.230469 2.582031s4.570312-.917968 6.230469-2.582031c1.664062-1.664063 2.582031-3.875 2.582031-6.230469 0-2.355468-.917969-4.566406-2.582031-6.230468l-29.933594-29.933594c3.578125-4.574219 6.195312-11.890625 7.824218-21.863282l2.160157 5.089844c1.386719 3.257813 4.570312 5.367188 8.113281 5.367188 1.191406 0 2.347656-.238282 3.445312-.703125 2.167969-.921875 3.84375-2.632813 4.726563-4.8125.878906-2.183594.859375-4.578125-.0625-6.746094l-1.335937-3.140625c7.402343 5.074219 13.789062 7.960938 19.085937 8.617188v42.3125c0 4.859374 3.953125 8.8125 8.816406 8.8125 4.859375 0 8.8125-3.953126 8.8125-8.8125v-27.1875l13.734375 13.734374v26.789063c0 4.859375 3.953125 8.8125 8.8125 8.8125s8.8125-3.953125 8.8125-8.8125v-9.164063l16.101563 16.101563c1.664062 1.667969 3.878906 2.585937 6.234375 2.585937 2.355468 0 4.566406-.917968 6.230468-2.582031 1.664063-1.667969 2.582032-3.878906 2.582032-6.234375 0-2.351562-.917969-4.566406-2.582032-6.230468l-16.105468-16.101563h9.164062c4.859375 0 8.8125-3.957031 8.8125-8.816406s-3.953125-8.8125-8.8125-8.8125h-26.789062l-13.734375-13.734375h27.1875c4.859375 0 8.8125-3.953125 8.8125-8.8125s-3.953125-8.8125-8.8125-8.8125h-42.332031c-.703126-5.765625-4.023438-12.789063-9.925782-20.988282l5.128906 2.070313c1.054688.421875 2.160157.640625 3.292969.640625 3.613281 0 6.820313-2.164062 8.175781-5.515625.878907-2.183594.859376-4.578125-.0625-6.746094-.921874-2.164062-2.628906-3.84375-4.8125-4.722656l-3.167968-1.28125c8.816406-1.644531 15.367187-4.125 19.578125-7.414063l29.933593 29.933594c1.664063 1.667969 3.878907 2.582032 6.230469 2.582032 2.355469 0 4.570313-.914063 6.230469-2.582032 1.667969-1.664062 2.582031-3.875 2.582031-6.230468 0-2.351563-.914062-4.566407-2.582031-6.230469l-19.222656-19.226563h19.425781l18.941406 18.941406c1.664063 1.664063 3.875 2.582032 6.230469 2.582032s4.566406-.917969 6.230469-2.582032c1.664062-1.664062 2.582031-3.878906 2.582031-6.230468 0-2.355469-.917969-4.566406-2.582031-6.230469l-6.480469-6.480469h22.777344c4.859375 0 8.8125-3.953125 8.8125-8.8125s-3.953125-8.8125-8.8125-8.8125zm-109.773438 8.8125c-6.089844 1.449219-14.90625 2.617188-25.933594 2.617188-4.738281 0-9.34375-.21875-13.699218-.652344-.902344-.679688-1.796875-1.335938-2.679688-1.964844.878906-.625 1.773438-1.28125 2.671875-1.960937 4.359375-.433594 8.96875-.652344 13.707031-.652344 11.027344-.003906 19.84375 1.167969 25.933594 2.613281zm-40.164062 31.738282c-3.351563-3.351563-6.453125-6.761719-9.226563-10.148438-.15625-1.121094-.324219-2.214844-.503906-3.28125 1.066406.179688 2.164063.347656 3.285156.503906 3.382813 2.773438 6.796875 5.871094 10.148438 9.222656 7.792969 7.796876 13.199219 14.859376 16.484375 20.1875-5.332032-3.28125-12.394532-8.6875-20.1875-16.484374zm20.1875-79.960938c-3.285156 5.332031-8.691406 12.394531-16.484375 20.1875-3.351563 3.351562-6.765625 6.453125-10.148438 9.226562-1.121093.15625-2.21875.324219-3.285156.503907.179687-1.066407.347656-2.164063.503906-3.285157 2.773438-3.382812 5.875-6.796874 9.226563-10.148437 7.792968-7.792969 14.855468-13.199219 20.1875-16.484375zm-46.257813 19.65625c-.683593.902344-1.335937 1.796875-1.964843 2.679688-.628907-.882813-1.285157-1.777344-1.964844-2.679688-.433594-4.355469-.652344-8.957031-.652344-13.699219 0-11.027343 1.167969-19.839843 2.617188-25.933593 1.445312 6.09375 2.617187 14.90625 2.617187 25.933593 0 4.742188-.222656 9.34375-.652344 13.699219zm-3.929687 57.132812c.679687-.898437 1.335937-1.792968 1.964844-2.675781.628906.882813 1.28125 1.777344 1.964843 2.675781.429688 4.359376.652344 8.960938.652344 13.703126 0 11.027343-1.171875 19.839843-2.617187 25.929687-1.449219-6.089844-2.617188-14.90625-2.617188-25.929687 0-4.742188.21875-9.34375.652344-13.703126zm-16.34375-10.257812c-.179688 1.066406-.347656 2.164062-.503906 3.285156-2.773438 3.382813-5.871094 6.792969-9.222657 10.148438-7.796875 7.792968-14.859375 13.199218-20.1875 16.484375 3.28125-5.332031 8.6875-12.394531 16.484375-20.1875 3.351563-3.351563 6.761719-6.453125 10.148438-9.226563 1.121094-.15625 2.214844-.324218 3.28125-.503906zm-9.726563-50.046875c3.351563 3.355469 6.449219 6.765625 9.222657 10.152344.15625 1.117187.324218 2.214843.503906 3.28125-1.066406-.179688-2.164063-.347657-3.28125-.503907-3.386719-2.773437-6.796875-5.875-10.148438-9.222656-7.796875-7.796875-13.203125-14.859375-16.488281-20.191406 5.332031 3.285156 12.394531 8.691406 20.191406 16.484375zm2.148438 31.738281c-.886719.628906-1.78125 1.285156-2.683594 1.964844-4.355469.433594-8.960937.652344-13.695313.652344-11.03125 0-19.84375-1.167969-25.933593-2.617188 6.089843-1.445312 14.90625-2.617187 25.933593-2.617187 4.738282 0 9.34375.222656 13.703126.652343.898437.683594 1.792968 1.335938 2.675781 1.964844zm0 0" fill="url(#b)"/><path d="m321.804688 366.597656c-1.011719 0-1.835938-.824218-1.835938-1.835937v-39.617188l-18.390625 18.386719c-.46875.46875-1.015625.535156-1.296875.535156-.285156 0-.832031-.066406-1.296875-.535156-.472656-.46875-.539063-1.015625-.539063-1.296875 0-.285156.066407-.832031.535157-1.296875l20.988281-20.988281v-39.160157l-31.140625 31.136719c-.464844.46875-1.011719.539063-1.296875.539063s-.828125-.070313-1.296875-.539063-.539063-1.015625-.539063-1.296875c0-.285156.070313-.832031.539063-1.296875l34.976563-34.976562-3.117188-2.726563c-4.3125-3.78125-7.558594-14.394531-8.90625-29.121094l-7.453125-1.097656-5.664063 14.03125c-.28125.699219-.949218 1.148438-1.703124 1.148438-.234376 0-.464844-.042969-.683594-.132813-.613282-.25-.890625-.722656-1.003906-.984375-.109376-.261718-.261719-.792968-.011719-1.40625l6.453125-15.988281-6.117188-4.390625c-11.679687 10.011719-21.878906 15.753906-27.984375 15.753906-.199219 0-.394531-.011718-.59375-.023437l-4.125-.269531v49.441406c0 1.011718-.824219 1.832031-1.835937 1.832031-1.011719 0-1.835938-.820313-1.835938-1.832031v-44.035156l-27.691406 27.6875v29.679687c0 1.011719-.820312 1.835937-1.832031 1.835937-1.015625 0-1.839844-.820312-1.839844-1.835937v-26.007813l-28.011719 28.015626c-.46875.46875-1.015625.539062-1.300781.539062s-.828125-.070312-1.292969-.539062c-.472656-.46875-.542968-1.011719-.542968-1.296876 0-.285156.070312-.828124.539062-1.296874l28.015625-28.015626h-26.007813c-1.011718 0-1.835937-.824218-1.835937-1.835937s.820313-1.835937 1.835937-1.835937h29.679688l27.6875-27.6875h-44.035156c-1.011719 0-1.832032-.824219-1.832032-1.835938s.820313-1.835938 1.832032-1.835938h49.46875l-.273438-4.132812c-.378906-5.726562 4.832032-15.523438 14.292969-26.886719l-4.496094-6.050781-13.925781 5.917969c-.230469.097656-.46875.148437-.714844.148437-.738281 0-1.402344-.4375-1.691406-1.117187-.394531-.933594.039062-2.011719.972656-2.410157l15.867188-6.742187-1.21875-7.429687c-15.910156-1.222657-27.324219-4.539063-31.316406-9.09375l-2.726563-3.113282-34.976563 34.976563c-.46875.464843-1.015624.535156-1.296874.535156-.285157 0-.832032-.070313-1.296876-.535156-.46875-.472657-.539062-1.015625-.539062-1.300781 0-.285157.070312-.828126.535156-1.296876l31.136719-31.136718h-39.160156l-20.984375 20.984375c-.464844.46875-1.011719.539062-1.296875.539062-.28125 0-.828125-.070312-1.296875-.539062s-.539063-1.011719-.539063-1.296875.070313-.832032.539063-1.296875l18.386718-18.390625h-39.617187c-1.011719 0-1.832031-.824219-1.832031-1.835938 0-1.011718.820312-1.835937 1.832031-1.835937h39.617187l-18.386718-18.390625c-.46875-.46875-.535156-1.015625-.535156-1.296875 0-.285157.066406-.832031.535156-1.296875.46875-.46875 1.015625-.539063 1.296875-.539063.285156 0 .832031.070313 1.296875.535157l20.988281 20.988281h39.160156l-31.136719-31.136719c-.46875-.46875-.539062-1.015625-.539062-1.296875 0-.285156.070312-.832031.539062-1.300781s1.011719-.535156 1.296876-.535156c.285156 0 .832031.066406 1.296874.535156l34.976563 34.976562 2.730469-3.113281c3.777344-4.316406 14.390625-7.5625 29.117187-8.90625l1.097657-7.457031-14.027344-5.660156c-.941406-.378907-1.394532-1.453126-1.019532-2.390626.285157-.695312.953126-1.148437 1.707032-1.148437.230468 0 .464844.042969.6875.132813l15.984375 6.453124 4.394531-6.117187c-10.386719-12.113281-16.113281-22.527344-15.714844-28.570313l.273438-4.132812h-49.460938c-1.011718 0-1.835937-.820312-1.835937-1.835938 0-1.011718.824219-1.835937 1.835937-1.835937h44.03125l-27.6875-27.6875h-29.679687c-1.011719 0-1.835938-.824219-1.835938-1.835937 0-1.011719.824219-1.835938 1.835938-1.835938h26.007812l-28.015625-28.015625c-.46875-.46875-.535156-1.015625-.535156-1.296875 0-.285156.066406-.832031.535156-1.296875.46875-.46875 1.015625-.539063 1.300782-.539063.28125 0 .828124.070313 1.292968.539063l28.019532 28.015625v-26.007812c0-1.011719.820312-1.835938 1.835937-1.835938 1.011719 0 1.832031.824219 1.832031 1.835938v29.679687l27.691406 27.691406v-44.035156c0-1.011719.824219-1.835937 1.835938-1.835937s1.835938.824218 1.835938 1.835937v49.460937l4.132812-.273437c.195312-.011719.398438-.019531.597656-.019531 5.871094 0 15.207032 5.082031 26.289063 14.308594l6.046875-4.492188-5.917969-13.921875c-.257813-.609375-.117187-1.140625-.011719-1.40625.105469-.261719.375-.742187.984375-1.003906.230469-.097657.472657-.148438.714844-.148438.738281 0 1.402344.441407 1.691406 1.121094l6.742188 15.867187 7.433593-1.21875c1.21875-15.910156 4.535157-27.324218 9.089844-31.3125l3.117188-2.730468-34.980469-34.972656c-.464844-.46875-.535156-1.015626-.535156-1.300782 0-.28125.070312-.828125.535156-1.292968.46875-.472657 1.015625-.539063 1.300781-.539063.28125 0 .828125.066406 1.292969.535156l31.140625 31.136719v-39.160156l-20.984375-20.984375c-.46875-.46875-.539063-1.015625-.539063-1.296875 0-.285156.070313-.832032.539063-1.296875.46875-.46875 1.011719-.539063 1.296875-.539063s.828125.070313 1.296875.539063l18.390625 18.386719v-39.617188c0-1.011719.824219-1.835938 1.835938-1.835938 1.011718 0 1.835937.824219 1.835937 1.835938v39.617188l18.390625-18.386719c.46875-.46875 1.011719-.539063 1.296875-.539063s.832031.070313 1.296875.539063c.46875.46875.539062 1.015625.539062 1.296875 0 .285156-.070312.828125-.539062 1.296875l-20.984375 20.984375v39.160156l31.136719-31.132812c.46875-.46875 1.015625-.539063 1.300781-.539063.28125 0 .828125.070313 1.292969.539063.472656.46875.539062 1.011718.539062 1.296874 0 .285157-.066406.828126-.535156 1.296876l-34.976562 34.976562 3.113281 2.726562c4.316406 3.78125 7.5625 14.394532 8.90625 29.117188l7.457031 1.101562 5.664062-14.03125c.28125-.699218.949219-1.148437 1.703126-1.148437.234374 0 .464843.042969.6875.132813.609374.246093.886718.722656 1 .984374.109374.261719.257812.789063.011718 1.402344l-6.453125 15.992188 6.117188 4.390625c11.664062-10 21.859375-15.734375 27.972656-15.734375.203125 0 .402344.007812.597656.023437l4.132813.269531v-49.460937c0-1.011719.824218-1.835937 1.835937-1.835937s1.835938.824218 1.835938 1.835937v44.035156l27.6875-27.691406v-29.679687c0-1.011719.824219-1.835938 1.835937-1.835938 1.011719 0 1.835938.824219 1.835938 1.835938v26.011718l28.015625-28.015625c.46875-.46875 1.015625-.539062 1.296875-.539062.285156 0 .832031.070312 1.296875.539062.472656.46875.539062 1.011719.539062 1.296875 0 .28125-.066406.828125-.535156 1.296875l-28.019531 28.015625h26.007812c1.011719 0 1.835938.820313 1.835938 1.835938 0 1.011718-.824219 1.835937-1.835938 1.835937h-29.679687l-27.691407 27.6875h44.035157c1.011719 0 1.835937.824219 1.835937 1.835938s-.824218 1.835937-1.835937 1.835937h-49.460938l.273438 4.132813c.375 5.722656-4.832031 15.523437-14.292969 26.886719l4.492188 6.046874 13.925781-5.917968c.234375-.097656.472656-.148438.71875-.148438.734375 0 1.398437.441406 1.6875 1.121094.394531.929688-.039063 2.011719-.972657 2.40625l-15.863281 6.742188 1.21875 7.433593c15.90625 1.222657 27.320313 4.535157 31.3125 9.089844l2.726563 3.117187 34.976562-34.976562c.46875-.46875 1.011719-.539062 1.296875-.539062.285157 0 .832031.070312 1.296875.539062.46875.46875.539063 1.015625.539063 1.296875 0 .285156-.070313.832031-.535157 1.296875l-31.136718 31.140625h39.15625l20.988281-20.988281c.464844-.46875 1.011719-.535156 1.296875-.535156.28125 0 .828125.066406 1.292969.535156.472656.46875.539062 1.015625.539062 1.296875 0 .285156-.066406.832031-.535156 1.296875l-18.390625 18.394531h39.621094c1.011718 0 1.832031.824219 1.832031 1.835937 0 1.011719-.820313 1.832032-1.832031 1.832032h-39.621094l18.386719 18.390625c.472656.46875.539062 1.015625.539062 1.300781 0 .28125-.066406.828125-.535156 1.296875s-1.015625.539063-1.300781.539063c-.28125 0-.828125-.070313-1.292969-.539063l-20.988281-20.988281h-39.160156l31.136718 31.140625c.46875.464843.535156 1.011719.535156 1.296875 0 .28125-.066406.828125-.535156 1.296875s-1.015625.539062-1.296875.539062c-.285156 0-.832031-.070312-1.296875-.539062l-34.976562-34.976563-2.730469 3.117188c-3.777344 4.3125-14.390625 7.558594-29.117187 8.90625l-1.097657 7.453125 14.027344 5.664062c.617187.246094.894531.722657 1.003906.984375.113281.261719.261719.789063.015625 1.402344-.285156.699219-.953125 1.152344-1.707031 1.152344-.234375 0-.464844-.046875-.683594-.136719l-15.988281-6.449219-4.394531 6.117188c10.386719 12.113281 16.113281 22.523437 15.714843 28.570312l-.273437 4.128906h49.460937c1.011719 0 1.835938.824219 1.835938 1.839844 0 1.011719-.824219 1.832032-1.835938 1.832032h-44.035156l27.691406 27.691406h29.679688c1.011719 0 1.835938.820312 1.835938 1.835937 0 1.011719-.824219 1.835938-1.835938 1.835938h-26.007812l28.015624 28.015625c.464844.46875.535157 1.011718.535157 1.296875 0 .285156-.070313.828125-.535157 1.296875-.472656.46875-1.015624.539062-1.300781.539062-.28125 0-.828125-.070312-1.292969-.539062l-28.019531-28.015625v26.007812c0 1.011719-.820312 1.835938-1.835937 1.835938-1.011719 0-1.832032-.824219-1.832032-1.835938v-29.679687l-27.691406-27.6875v44.03125c0 1.011718-.824218 1.835937-1.835937 1.835937s-1.835938-.824219-1.835938-1.835937v-49.441406l-4.128906.269531c-.195313.015625-.390625.027343-.589844.027343-5.859375 0-15.199219-5.09375-26.300781-14.332031l-6.046875 4.492188 5.917969 13.925781c.257812.609375.117187 1.140625.011718 1.402344-.105468.265625-.375.746094-.984374 1.003906-.230469.097656-.46875.144531-.714844.144531-.738282 0-1.402344-.4375-1.691406-1.117187l-6.742188-15.867188-7.433594 1.21875c-1.222656 15.910156-4.535156 27.324219-9.089844 31.3125l-3.117187 2.730469 34.976563 34.972656c.46875.46875.539062 1.015625.539062 1.300781 0 .28125-.070312.828126-.539062 1.292969-.46875.472657-1.011719.539063-1.296876.539063-.285156 0-.832031-.066406-1.296874-.535156l-31.140626-31.136719v39.160156l20.988282 20.984375c.46875.46875.535156 1.015625.535156 1.296875 0 .285156-.066406.832031-.535156 1.296875-.46875.46875-1.015625.539062-1.296875.539062-.285157 0-.832031-.070312-1.296875-.535156l-18.394532-18.390625v39.617188c.007813 1.011719-.816406 1.835937-1.828124 1.835937zm2.925781-99.175781 1.15625-2.511719c2.664062-5.777344 5.511719-18.234375 5.511719-35.855468 0-5.296876-.261719-10.445313-.78125-15.296876l-.113282-1.082031-.664062-.863281c-1.785156-2.332031-3.390625-4.605469-4.773438-6.757812l-3.261718-5.082032-3.265626 5.082032c-1.378906 2.152343-2.984374 4.425781-4.773437 6.757812l-.660156.863281-.117188 1.082031c-.515625 4.851563-.777343 10-.777343 15.296876 0 17.621093 2.84375 30.078124 5.507812 35.855468l1.160156 2.511719s2.867188-.289063 2.925782-.296875c.0625.007812 2.925781.296875 2.925781.296875zm7.6875-65.410156c.542969 2.488281 1.011719 5.230469 1.398437 8.152343l.144532 1.082032.683593.84375c3.0625 3.796875 6.515625 7.621094 10.261719 11.367187 12.457031 12.457031 23.28125 19.253907 29.253906 21.457031l2.589844.957032s1.828125-2.230469 1.863281-2.277344c.050781-.039062 2.277344-1.863281 2.277344-1.863281l-.957031-2.589844c-2.207032-5.972656-9-16.792969-21.457032-29.25-3.746093-3.75-7.570312-7.199219-11.367187-10.265625l-.847656-.683594-1.078125-.144531c-2.921875-.386719-5.667969-.855469-8.15625-1.398437l-5.898438-1.289063zm-65.558594 43.863281 2.589844-.957031c5.972656-2.207031 16.792969-9.003907 29.253906-21.460938 3.746094-3.742187 7.199219-7.570312 10.261719-11.367187l.683594-.84375.144531-1.082032c.386719-2.921874.855469-5.664062 1.398437-8.152343l1.289063-5.902344-5.902344 1.289063c-2.488281.542968-5.230469 1.015624-8.152344 1.402343l-1.078125.140625-.847656.683594c-3.796875 3.066406-7.621094 6.519531-11.367188 10.265625-12.457031 12.457031-19.253906 23.277344-21.457031 29.25l-.957031 2.59375s2.230469 1.824219 2.277344 1.859375c.039062.054688 1.863281 2.28125 1.863281 2.28125zm97.210937-68.683594c-5.296874 0-10.445312.265625-15.300781.78125l-1.082031.117188-.863281.660156c-2.339844 1.792969-4.613281 3.398438-6.753907 4.773438l-5.082031 3.265624 5.082031 3.261719c2.148438 1.378907 4.421876 2.984375 6.757813 4.773438l.863281.664062 1.082032.113281c4.851562.519532 10 .78125 15.296874.78125 17.621094 0 30.078126-2.847656 35.855469-5.511718l2.511719-1.15625s-.289062-2.867188-.296875-2.925782c.007813-.0625.296875-2.925781.296875-2.925781l-2.511719-1.15625c-5.777343-2.667969-18.234375-5.515625-35.855469-5.515625zm-122.902343 12.519532 2.511719 1.160156c5.78125 2.664062 18.234374 5.511718 35.855468 5.511718 5.292969 0 10.441406-.265624 15.296875-.78125l1.082031-.117187.863282-.664063c2.335937-1.789062 4.609375-3.398437 6.757812-4.773437l5.085938-3.265625-5.085938-3.261719c-2.144531-1.375-4.417968-2.980469-6.75-4.769531l-.867187-.664062-1.082031-.113282c-4.851563-.519531-10-.78125-15.300782-.78125-17.621094 0-30.078125 2.847656-35.855468 5.511719l-2.511719 1.15625s.289062 2.867187.296875 2.925781c-.007813.066406-.296875 2.925782-.296875 2.925782zm132.988281-61.054688c-5.972656 2.207031-16.792969 9.003906-29.25 21.460938-3.746094 3.742187-7.199219 7.570312-10.261719 11.367187l-.683593.84375-.144532 1.082031c-.386718 2.921875-.859375 5.664063-1.402344 8.152344l-1.285156 5.902344 5.898438-1.289063c2.488281-.542969 5.230468-1.015625 8.15625-1.402343l1.078125-.140626.847656-.683593c3.792969-3.066407 7.621094-6.515625 11.367187-10.265625 12.453126-12.457032 19.25-23.277344 21.457032-29.25l.957031-2.59375s-2.230469-1.824219-2.277344-1.859375c-.042969-.054688-1.863281-2.28125-1.863281-2.28125zm-111.4375 3.183594.957031 2.59375c2.207031 5.972656 9 16.792968 21.457031 29.25 3.746094 3.746094 7.570313 7.199218 11.367188 10.265625l.847656.683593 1.078125.140626c2.921875.386718 5.664063.859374 8.152344 1.402343l5.902344 1.289063-1.289063-5.902344c-.542968-2.488281-1.011718-5.230469-1.398437-8.152344l-.144531-1.082031-.683594-.84375c-3.0625-3.796875-6.515625-7.625-10.261719-11.367187-12.457031-12.457032-23.28125-19.253907-29.253906-21.460938l-2.589844-.957031s-1.828125 2.230469-1.863281 2.28125c-.050782.039062-2.277344 1.859375-2.277344 1.859375zm55-23.175782c-2.664062 5.777344-5.507812 18.234376-5.507812 35.855469 0 5.296875.261718 10.445313.777343 15.296875l.117188 1.082032.660156.863281c1.789063 2.332031 3.394531 4.605469 4.773437 6.757812l3.265626 5.082031 3.261718-5.082031c1.382813-2.152343 2.988282-4.425781 4.773438-6.757812l.664062-.863281.113282-1.082032c.519531-4.851562.78125-10 .78125-15.296875 0-17.621093-2.847657-30.078125-5.511719-35.855469l-1.15625-2.511718s-2.871094.289062-2.925781.296875c-.0625-.007813-2.925782-.296875-2.925782-.296875zm0 0" fill="url(#d)"/><path d="m179.632812 278.050781h-11.183593l3.179687-3.179687c.816406-.820313 1.269532-1.90625 1.269532-3.0625s-.453126-2.242188-1.269532-3.058594c-.816406-.820312-1.902344-1.269531-3.058594-1.269531s-2.246093.449219-3.0625 1.269531l-9.300781 9.300781h-9.539062l9.4375-9.441406c.820312-.816406 1.269531-1.902344 1.269531-3.058594s-.449219-2.242187-1.265625-3.058593c-.816406-.820313-1.90625-1.269532-3.0625-1.269532s-2.242187.449219-3.058594 1.269532l-14.703125 14.699218c-2.242187-1.757812-5.839844-3.042968-10.734375-3.84375l2.5-1.0625c2.195313-.933594 3.222657-3.476562 2.289063-5.671875-.449219-1.066406-1.289063-1.890625-2.363282-2.324219-1.070312-.433593-2.246093-.421874-3.3125.03125l-1.542968.65625c2.488281-3.632812 3.902344-6.769531 4.222656-9.375h20.789062c2.386719 0 4.328126-1.941406 4.328126-4.328124 0-2.386719-1.941407-4.328126-4.328126-4.328126h-13.351562l6.746094-6.746093h13.15625c2.386718 0 4.328125-1.941407 4.328125-4.328125 0-2.386719-1.941407-4.328125-4.328125-4.328125h-4.5l7.910156-7.90625c.816406-.816407 1.265625-1.90625 1.265625-3.0625s-.449219-2.242188-1.265625-3.058594-1.90625-1.269531-3.0625-1.269531-2.242188.453125-3.058594 1.269531l-7.910156 7.910156v-4.5c0-2.386719-1.941406-4.328125-4.328125-4.328125s-4.328125 1.941406-4.328125 4.328125v13.15625l-6.742188 6.742188v-13.351563c0-2.386718-1.945312-4.328125-4.328124-4.328125-2.386719 0-4.328126 1.941407-4.328126 4.328125v20.789063c-2.832031.34375-6.28125 1.976562-10.308593 4.875l1.015625-2.515625c.894531-2.214844-.179688-4.742188-2.394532-5.632813-2.210937-.894531-4.738281.179688-5.632812 2.394531l-.628906 1.554688c-.804688-4.328125-2.023438-7.546875-3.640625-9.617188l14.699219-14.699218c.820312-.816406 1.269531-1.902344 1.269531-3.058594s-.449219-2.242188-1.265625-3.0625c-.820313-.816406-1.90625-1.265625-3.0625-1.265625s-2.242188.449219-3.058594 1.265625l-9.441406 9.445312v-9.542968l9.300781-9.300782c.816406-.816406 1.269531-1.902343 1.269531-3.058593s-.453125-2.242188-1.269531-3.0625c-.816406-.816407-1.902344-1.265625-3.058594-1.265625s-2.246093.449218-3.0625 1.265625l-3.179687 3.183593v-11.183593c0-2.386719-1.945313-4.328125-4.328125-4.328125-2.386719 0-4.328125 1.941406-4.328125 4.328125v11.183593l-3.183594-3.179687c-.816406-.820313-1.902344-1.269531-3.058594-1.269531s-2.246094.449218-3.0625 1.269531c-.816406.816406-1.265625 1.902344-1.265625 3.058594s.449219 2.242187 1.265625 3.058593l9.304688 9.304688v9.539062l-9.441406-9.441406c-.820313-.816406-1.90625-1.265625-3.0625-1.265625s-2.242188.449219-3.058594 1.265625c-.820313.816406-1.269532 1.90625-1.269532 3.0625 0 1.152344.449219 2.242188 1.269532 3.058594l14.699218 14.699219c-1.757812 2.246093-3.042968 5.839843-3.84375 10.738281l-1.0625-2.5c-.449218-1.066406-1.289062-1.890625-2.363281-2.320312-1.070312-.433594-2.25-.421876-3.3125.027343-1.0625.453125-1.886719 1.292969-2.320312 2.363281-.433594 1.074219-.421875 2.25.03125 3.3125l.65625 1.546876c-3.632813-2.492188-6.769531-3.90625-9.375-4.222657v-20.792969c0-2.386718-1.941407-4.328124-4.328125-4.328124-2.386719 0-4.328125 1.941406-4.328125 4.328124v13.351563l-6.742188-6.742187v-13.15625c0-2.386719-1.941406-4.328126-4.328125-4.328126-2.386718 0-4.328125 1.941407-4.328125 4.328126v4.5l-7.910156-7.910157c-.816406-.816406-1.902344-1.265625-3.058594-1.265625s-2.246093.449219-3.0625 1.265625c-.816406.816407-1.265625 1.90625-1.265625 3.058594 0 1.15625.449219 2.246094 1.265625 3.0625l7.910157 7.90625h-4.5c-2.386719 0-4.328126 1.941406-4.328126 4.328125s1.941407 4.328125 4.328126 4.328125h13.15625l6.746093 6.746094h-13.351562c-2.386719 0-4.328125 1.941406-4.328125 4.328125 0 2.386718 1.941406 4.328125 4.328125 4.328125h20.789062c.34375 2.832031 1.976563 6.28125 4.875 10.308593l-2.519531-1.015624c-2.214844-.894532-4.742188.179687-5.632812 2.394531-.433594 1.070312-.421876 2.246093.03125 3.308593.449218 1.066407 1.289062 1.890626 2.363281 2.320313l1.554687.628906c-4.328125.808594-7.546875 2.027344-9.617187 3.644531l-14.699219-14.703124c-.816406-.816407-1.902344-1.265626-3.058594-1.265626-1.160156 0-2.246094.449219-3.0625 1.265626-.816406.820312-1.265625 1.90625-1.265625 3.0625s.449219 2.242187 1.265625 3.058593l9.441406 9.441407h-9.539062l-9.300781-9.300782c-.816407-.820312-1.90625-1.269531-3.0625-1.269531s-2.242188.449219-3.058594 1.269531c-.816406.816406-1.269531 1.902344-1.269531 3.058594s.449218 2.242188 1.269531 3.058594l3.183594 3.183594h-11.183594c-2.386719 0-4.328125 1.941406-4.328125 4.328124 0 2.386719 1.941406 4.328126 4.328125 4.328126h11.183594l-3.179688 3.183593c-.820312.816407-1.269531 1.902344-1.269531 3.058594s.449219 2.242187 1.269531 3.058594c.816407.820312 1.902344 1.269531 3.058594 1.269531s2.242187-.449219 3.058594-1.269531l9.304687-9.300781h9.539063l-9.441407 9.441406c-.816406.816406-1.265624 1.90625-1.265624 3.058594 0 1.15625.449218 2.246093 1.265624 3.0625.816407.816406 1.90625 1.265624 3.0625 1.265624s2.242188-.449218 3.058594-1.265624l14.699219-14.699219c2.246094 1.757812 5.839844 3.042969 10.738281 3.839843l-2.5 1.0625c-2.199218.933594-3.226562 3.480469-2.292968 5.675782.679687 1.601562 2.246093 2.636718 3.984374 2.636718.585938 0 1.15625-.117187 1.691407-.347656l1.546875-.65625c-2.492188 3.632813-3.90625 6.769532-4.222656 9.375h-20.792969c-2.386719 0-4.328125 1.941406-4.328125 4.328125s1.941406 4.328125 4.328125 4.328125h13.351562l-6.746093 6.746094h-13.152344c-2.386719 0-4.328125 1.941406-4.328125 4.328125s1.941406 4.328125 4.328125 4.328125h4.5l-7.910156 7.90625c-.816407.820312-1.269532 1.90625-1.269532 3.0625s.453125 2.242188 1.269532 3.058594c.816406.816406 1.902343 1.269531 3.058593 1.269531s2.246094-.453125 3.0625-1.269531l7.90625-7.910156v4.503906c0 2.382812 1.941407 4.328125 4.328125 4.328125 2.386719 0 4.328125-1.945313 4.328125-4.328125v-13.15625l6.746094-6.746094v13.351562c0 2.386719 1.941406 4.328126 4.328125 4.328126s4.328125-1.941407 4.328125-4.328126v-20.78125c2.828125-.347656 6.277344-1.980468 10.308594-4.882812l-1.015625 2.515625c-.894532 2.214844.179687 4.742187 2.394531 5.632813.515625.210937 1.058594.316406 1.617187.316406 1.773438 0 3.347657-1.0625 4.015626-2.707032l.625-1.558593c.808593 4.332031 2.027343 7.550781 3.644531 9.617187l-14.703125 14.695313c-.816406.820312-1.269532 1.90625-1.269532 3.0625s.453126 2.242187 1.269532 3.058593c.816406.820313 1.902344 1.269532 3.058594 1.269532s2.246093-.449219 3.0625-1.269532l9.441406-9.441406v9.539063l-9.304688 9.304687c-.816406.816406-1.265625 1.902344-1.265625 3.058594s.449219 2.242188 1.265625 3.058594c.816406.820312 1.90625 1.269531 3.0625 1.269531s2.242188-.449219 3.058594-1.269531l3.183594-3.179688v11.183594c0 2.386719 1.941406 4.328125 4.328125 4.328125s4.328125-1.941406 4.328125-4.328125v-11.183594l3.179687 3.179688c.816407.816406 1.90625 1.269531 3.0625 1.269531s2.242188-.453125 3.058594-1.269531c.820313-.816406 1.269531-1.902344 1.269531-3.058594s-.449218-2.242188-1.269531-3.058594l-9.300781-9.304687v-9.539063l9.441406 9.441406c.816406.816407 1.902344 1.269532 3.0625 1.269532 1.15625 0 2.242188-.453125 3.058594-1.269532.816406-.816406 1.265625-1.90625 1.265625-3.058593 0-1.15625-.449219-2.246094-1.265625-3.0625l-14.699219-14.699219c1.757813-2.246094 3.042969-5.839844 3.839844-10.734375l1.0625 2.496094c.679687 1.601562 2.242187 2.636719 3.984375 2.636719.582031 0 1.152344-.117188 1.691406-.34375 1.066406-.453126 1.890625-1.292969 2.320312-2.363282.433594-1.074218.421876-2.25-.027343-3.3125l-.65625-1.542968c3.632812 2.492187 6.773437 3.910156 9.371093 4.230468v20.78125c0 2.386719 1.941407 4.328125 4.328126 4.328125 2.386718 0 4.328124-1.941406 4.328124-4.328125v-13.351562l6.746094 6.742187v13.160157c0 2.382812 1.941406 4.324218 4.328125 4.324218s4.328125-1.941406 4.328125-4.324218v-4.503907l7.90625 7.910157c.820313.816406 1.90625 1.269531 3.0625 1.269531s2.242188-.453125 3.058594-1.269531c.820312-.816407 1.269531-1.902344 1.269531-3.058594s-.449219-2.242188-1.269531-3.0625l-7.90625-7.90625h4.5c2.386719 0 4.328125-1.941406 4.328125-4.328125s-1.941406-4.328125-4.328125-4.328125h-13.15625l-6.746094-6.746094h13.351563c2.386719 0 4.328125-1.941406 4.328125-4.328125s-1.941406-4.328125-4.328125-4.328125h-20.789063c-.34375-2.832031-1.976562-6.28125-4.875-10.308594l2.519532 1.019532c.519531.207031 1.0625.3125 1.617187.3125 1.777344 0 3.351563-1.0625 4.015625-2.707032.433594-1.074218.421875-2.25-.03125-3.3125-.449219-1.0625-1.292969-1.886718-2.363281-2.320312l-1.554688-.628906c4.328125-.808594 7.546875-2.023438 9.617188-3.640626l14.699219 14.699219c.816406.820313 1.902343 1.269531 3.058593 1.269531s2.242188-.449218 3.0625-1.269531c.816407-.816406 1.265625-1.902343 1.265625-3.058593s-.449218-2.242188-1.265625-3.0625l-9.445312-9.441407h9.542969l9.300781 9.304688c.816406.816406 1.902343 1.265625 3.058593 1.265625s2.242188-.449219 3.0625-1.265625c.816407-.820313 1.265626-1.90625 1.265626-3.0625s-.449219-2.242188-1.265626-3.058594l-3.183593-3.183594h11.183593c2.386719 0 4.328126-1.941406 4.328126-4.328125 0-2.386718-1.941407-4.328125-4.328126-4.328125zm-53.910156 4.328125c-2.992187.710938-7.320312 1.285156-12.734375 1.285156-2.328125 0-4.589843-.105468-6.730469-.320312-.441406-.332031-.882812-.65625-1.316406-.964844.433594-.308594.871094-.628906 1.3125-.964844 2.140625-.210937 4.402344-.320312 6.730469-.320312 5.417969 0 9.746094.574219 12.738281 1.285156zm-19.726562 15.585938c-1.644532-1.644532-3.167969-3.320313-4.527344-4.984375-.078125-.550781-.160156-1.085938-.25-1.609375.523438.085937 1.0625.167968 1.613281.246094 1.664063 1.359374 3.339844 2.882812 4.984375 4.53125 3.828125 3.828124 6.480469 7.292968 8.09375 9.914062-2.617187-1.613281-6.085937-4.269531-9.914062-8.097656zm9.917968-39.265625c-1.613281 2.617187-4.269531 6.085937-8.097656 9.914062-1.644531 1.644531-3.320312 3.167969-4.984375 4.527344-.550781.078125-1.085937.160156-1.609375.25.085938-.523437.167969-1.0625.246094-1.613281 1.363281-1.664063 2.882812-3.335938 4.53125-4.984375 3.824219-3.828125 7.292969-6.480469 9.914062-8.09375zm-22.71875 9.652343c-.335937.441407-.65625.878907-.964843 1.3125-.308594-.433593-.632813-.871093-.964844-1.3125-.214844-2.140624-.320313-4.402343-.320313-6.730468 0-5.414063.574219-9.742188 1.285157-12.734375.710937 2.992187 1.285156 7.320312 1.285156 12.734375 0 2.328125-.109375 4.589844-.320313 6.730468zm-1.929687 28.058594c.332031-.445312.65625-.882812.964844-1.316406.308593.433594.628906.871094.964843 1.316406.210938 2.136719.320313 4.398438.320313 6.726563 0 5.414062-.574219 9.742187-1.285156 12.734375-.710938-2.992188-1.285157-7.320313-1.285157-12.734375 0-2.328125.105469-4.589844.320313-6.726563zm-8.027344-5.039062c-.085937.523437-.167969 1.0625-.246093 1.613281-1.363282 1.660156-2.882813 3.335937-4.53125 4.984375-3.828126 3.824219-7.296876 6.480469-9.914063 8.09375 1.613281-2.617188 4.269531-6.085938 8.097656-9.914062 1.644531-1.648438 3.320313-3.167969 4.980469-4.53125.550781-.078126 1.089844-.160157 1.613281-.246094zm-4.777343-24.578125c1.648437 1.648437 3.167968 3.320312 4.53125 4.984375.074218.550781.15625 1.089844.246093 1.613281-.523437-.089844-1.0625-.171875-1.613281-.25-1.660156-1.359375-3.335938-2.882813-4.980469-4.527344-3.828125-3.828125-6.484375-7.296875-8.097656-9.914062 2.617187 1.613281 6.085937 4.265625 9.914063 8.09375zm1.054687 15.585937c-.433594.308594-.871094.628906-1.316406.964844-2.140625.214844-4.402344.320312-6.726563.320312-5.414062 0-9.742187-.574218-12.734375-1.285156 2.992188-.710937 7.320313-1.285156 12.734375-1.285156 2.328125 0 4.589844.109375 6.730469.320312.441406.335938.878906.65625 1.3125.964844zm0 0" fill="url(#e)"/><path d="m92.230469 370.683594c-.496094 0-.902344-.40625-.902344-.902344v-19.457031l-9.03125 9.03125c-.230469.230469-.496094.265625-.636719.265625s-.410156-.035156-.636718-.265625c-.230469-.230469-.265626-.496094-.265626-.636719s.035157-.40625.265626-.636719l10.304687-10.304687v-19.230469l-15.292969 15.289063c-.226562.230468-.496094.265624-.636718.265624-.140626 0-.40625-.035156-.636719-.265624-.230469-.230469-.265625-.496094-.265625-.636719s.035156-.40625.265625-.636719l17.175781-17.175781-1.527344-1.34375c-2.121094-1.855469-3.714844-7.066407-4.375-14.296875l-3.660156-.539063-2.78125 6.890625c-.140625.339844-.46875.5625-.835938.5625-.117187 0-.226562-.019531-.339843-.066406-.300781-.121094-.4375-.355469-.488281-.480469-.054688-.128906-.128907-.390625-.007813-.691406l3.167969-7.851563-3.003906-2.15625c-5.734376 4.914063-10.742188 7.734376-13.742188 7.734376-.097656 0-.195312-.003907-.289062-.011719l-2.027344-.132813v24.28125c0 .496094-.40625.902344-.902344.902344s-.902344-.40625-.902344-.902344v-21.625l-13.597656 13.597656v14.578126c0 .496093-.40625.902343-.902344.902343s-.902344-.40625-.902344-.902343v-12.773438l-13.757812 13.757812c-.226562.230469-.496094.265626-.636719.265626s-.40625-.035157-.636719-.265626c-.230468-.230468-.265624-.5-.265624-.636718 0-.140625.035156-.410156.265624-.636719l13.757813-13.757813h-12.769531c-.5 0-.902344-.40625-.902344-.902343 0-.496094.402344-.902344.902344-.902344h14.574218l13.597657-13.597656h-21.625c-.496094 0-.898438-.40625-.898438-.902344s.402344-.902344.898438-.902344h24.292969l-.136719-2.027343c-.183594-2.8125 2.375-7.625 7.019531-13.207032l-2.207031-2.96875-6.839844 2.90625c-.113281.050782-.230469.074219-.351563.074219-.363281 0-.6875-.214844-.828124-.550781-.195313-.457032.019531-.988282.476562-1.183594l7.789062-3.308594-.597656-3.652344c-7.8125-.597656-13.417968-2.226562-15.378906-4.464843l-1.339844-1.527344-17.175781 17.175781c-.230469.230469-.496094.261719-.636719.261719s-.40625-.03125-.636718-.261719c-.230469-.230468-.265626-.5-.265626-.636718 0-.140626.035157-.410157.265626-.636719l15.289062-15.292969h-19.230469l-10.304687 10.304688c-.230469.230468-.5.265624-.636719.265624s-.40625-.035156-.636719-.265624c-.230468-.230469-.265625-.5-.265625-.636719 0-.140625.035157-.40625.265625-.636719l9.03125-9.03125h-19.457031c-.496094 0-.902344-.40625-.902344-.902344s.40625-.902344.902344-.902344h19.457031l-9.03125-9.03125c-.230468-.230468-.265625-.496093-.265625-.636718s.035157-.40625.265625-.636719c.230469-.230469.496094-.261719.636719-.261719s.40625.03125.636719.261719l10.304687 10.308594h19.234375l-15.292968-15.292969c-.230469-.230469-.265626-.5-.265626-.636719 0-.140625.035157-.410156.265626-.636719.230468-.230468.5-.265624.636718-.265624.140625 0 .410156.035156.636719.265624l17.179687 17.175782 1.339844-1.53125c1.855469-2.117188 7.066406-3.710938 14.296875-4.371094l.539063-3.660156-6.886719-2.78125c-.464844-.1875-.6875-.714844-.5-1.175782.136719-.339843.464844-.5625.835937-.5625.117188 0 .230469.023438.339844.066407l7.847656 3.167969 2.160157-3.003907c-5.101563-5.949219-7.914063-11.0625-7.71875-14.03125l.132812-2.027343h-24.289062c-.496094 0-.902344-.40625-.902344-.902344s.40625-.902344.902344-.902344h21.625l-13.597657-13.601562h-14.574218c-.5 0-.902344-.402344-.902344-.898438 0-.5.402344-.902344.902344-.902344h12.769531l-13.757813-13.757812c-.230468-.230469-.261718-.5-.261718-.636719 0-.140625.03125-.410156.261718-.636719.230469-.230468.5-.265625.636719-.265625.140625 0 .410157.035157.636719.261719l13.761719 13.761719v-12.773438c0-.496093.402343-.902343.898437-.902343.5 0 .902344.40625.902344.902343v14.574219l13.597656 13.597656v-21.625c0-.496094.40625-.898437.902344-.898437s.902344.402343.902344.898437v24.292969l2.03125-.132813c.09375-.007812.191406-.011718.292968-.011718 2.882813 0 7.464844 2.496094 12.910157 7.027344l2.96875-2.207032-2.90625-6.835937c-.128907-.300781-.058594-.5625-.003907-.691407.050782-.128906.183594-.363281.480469-.492187.113281-.046875.234375-.074219.351563-.074219.363281 0 .691406.21875.832031.550782l3.3125 7.792968 3.648437-.597656c.601563-7.8125 2.226563-13.417969 4.464844-15.378906l1.53125-1.339844-17.179687-17.175781c-.230469-.230469-.261719-.5-.261719-.640625 0-.136719.03125-.40625.261719-.632813.230469-.234375.5-.265625.636719-.265625.140624 0 .410156.03125.636718.261719l15.292969 15.292969v-19.230469l-10.304687-10.308594c-.230469-.226562-.265626-.496093-.265626-.636719 0-.136718.035157-.40625.265626-.632812.226562-.234375.496093-.265625.636718-.265625s.40625.03125.636719.261719l9.03125 9.03125v-19.457032c0-.496093.40625-.902343.902344-.902343.496093 0 .902343.40625.902343.902343v19.457032l9.03125-9.03125c.226563-.230469.496094-.261719.636719-.261719s.40625.03125.636719.261719c.230469.230468.265625.5.265625.636718 0 .140626-.035156.410157-.265625.636719l-10.304688 10.308594v19.230469l15.289063-15.292969c.230469-.230469.5-.261719.640625-.261719.136719 0 .40625.03125.632812.261719.234376.230469.265626.5.265626.636719 0 .140625-.03125.410156-.261719.636718l-17.179688 17.179688 1.53125 1.339844c2.121094 1.855468 3.714844 7.066406 4.375 14.300781l3.660157.539063 2.78125-6.890626c.136718-.34375.464843-.566406.835937-.566406.113281 0 .226563.023438.335937.066406.300782.121094.4375.355469.492188.484376.054688.128906.128906.386718.007812.6875l-3.171874 7.851562 3.003906 2.160156c5.730468-4.910156 10.734375-7.730468 13.738281-7.730468.101563 0 .195313.003906.292969.011718l2.03125.132813v-24.289063c0-.496094.402344-.902344.902344-.902344.496093 0 .898437.40625.898437.902344v21.625l13.597656-13.597656v-14.574219c0-.5.40625-.902343.902344-.902343.5 0 .902344.402343.902344.902343v12.769531l13.757812-13.757812c.230469-.230469.5-.261719.636719-.261719.140625 0 .410156.03125.636719.261719.230469.230469.265625.5.265625.636719 0 .140625-.035156.410156-.265625.636719l-13.757813 13.761718h12.773438c.496094 0 .902344.402344.902344.898438 0 .5-.40625.902344-.902344.902344h-14.574219l-13.597656 13.597656h21.621093c.5 0 .902344.40625.902344.902344 0 .496093-.402344.902343-.902344.902343h-24.289062l.132812 2.027344c.1875 2.8125-2.371093 7.625-7.019531 13.207031l2.210938 2.96875 6.835937-2.90625c.117188-.050781.234375-.074218.355469-.074218.359375 0 .6875.214843.828125.550781.195312.457031-.019531.984375-.476562 1.179687l-7.792969 3.3125.597656 3.648438c7.8125.601562 13.421875 2.230468 15.378906 4.464844l1.339844 1.53125 17.175781-17.175782c.230469-.230468.5-.265625.640625-.265625.136719 0 .40625.035157.636719.265625.230469.230469.261719.5.261719.636719 0 .140625-.03125.40625-.261719.636719l-15.292969 15.292968h19.234375l10.304688-10.308593c.230468-.230469.496094-.261719.636718-.261719.136719 0 .40625.03125.636719.261719s.261719.5.261719.640625c0 .136718-.03125.40625-.261719.632812l-9.03125 9.035156h19.457031c.496094 0 .902344.402344.902344.902344 0 .496094-.40625.898438-.902344.898438h-19.457031l9.03125 9.03125c.230469.230468.261719.5.261719.640625 0 .136719-.03125.40625-.261719.632812-.230469.230469-.5.265625-.636719.265625-.140624 0-.410156-.035156-.636718-.265625l-10.308594-10.304687h-19.230469l15.292969 15.292968c.226562.230469.261719.496094.261719.636719s-.035157.40625-.261719.636719c-.230469.230469-.5.261719-.640625.261719-.136719 0-.40625-.03125-.636719-.261719l-17.175781-17.175781-1.339844 1.527343c-1.855469 2.121094-7.070312 3.714844-14.300781 4.375l-.539062 3.660157 6.890624 2.78125c.300782.121093.4375.355469.492188.484375.054688.125.128906.386718.007812.6875-.140624.34375-.46875.566406-.839843.566406-.113281 0-.226563-.023438-.335938-.066406l-7.851562-3.171875-2.15625 3.007812c5.101562 5.949219 7.914062 11.0625 7.71875 14.03125l-.136719 2.027344h24.289062c.5 0 .902344.40625.902344.902344 0 .496093-.402344.902343-.902344.902343h-21.621093l13.597656 13.597657h14.574219c.496094 0 .902344.402343.902344.898437 0 .5-.40625.902344-.902344.902344h-12.773438l13.757813 13.757812c.230469.230469.265625.5.265625.636719 0 .140625-.035156.410157-.265625.636719-.230469.230469-.496094.265625-.636719.265625-.136719 0-.40625-.035156-.636719-.261719l-13.757812-13.761718v12.773437c0 .496094-.402344.902344-.902344.902344-.496094 0-.902344-.40625-.902344-.902344v-14.574219l-13.597656-13.59375v21.625c0 .496094-.402344.902344-.898437.902344-.5 0-.902344-.40625-.902344-.902344v-24.28125l-2.027344.132813c-.097656.003906-.191406.011719-.292969.011719-2.875 0-7.460937-2.5-12.914062-7.039063l-2.96875 2.207031 2.90625 6.839844c.125.296875.054687.558594.003906.6875s-.183594.367188-.484375.492188c-.113281.050781-.230469.074218-.351562.074218-.359376 0-.6875-.214844-.828126-.550781l-3.3125-7.792969-3.652343.597656c-.597657 7.8125-2.226563 13.421876-4.460938 15.378907l-1.53125 1.339843 17.175781 17.175782c.230469.230468.265626.5.265626.640625 0 .136719-.035157.40625-.265626.636719-.230468.230468-.5.261718-.636718.261718-.140625 0-.410156-.03125-.636719-.261718l-15.292969-15.292969v19.234375l10.304688 10.304687c.230468.230469.265625.496094.265625.636719 0 .136719-.035157.40625-.265625.636719-.230469.230469-.496094.261719-.636719.261719s-.40625-.03125-.636719-.261719l-9.03125-9.03125v19.457031c0 .5-.402344.902344-.898437.902344zm1.4375-48.703125.566406-1.234375c1.308594-2.839844 2.707031-8.957032 2.707031-17.609375 0-2.601563-.128906-5.128907-.382812-7.511719l-.058594-.53125-.324219-.425781c-.878906-1.144531-1.667969-2.261719-2.34375-3.316407l-1.601562-2.496093-1.605469 2.496093c-.675781 1.054688-1.464844 2.171876-2.34375 3.316407l-.324219.425781-.058593.53125c-.253907 2.382812-.382813 4.910156-.382813 7.511719 0 8.652343 1.398437 14.769531 2.707031 17.609375l.570313 1.234375s1.40625-.144531 1.433593-.148438c.035157.003907 1.441407.148438 1.441407.148438zm3.773437-32.125c.265625 1.222656.496094 2.570312.6875 4.003906l.070313.53125.335937.414063c1.503906 1.867187 3.199219 3.746093 5.039063 5.585937 6.117187 6.117187 11.429687 9.453125 14.363281 10.535156l1.273438.472657s.898437-1.097657.914062-1.121094c.027344-.019532 1.121094-.914063 1.121094-.914063l-.472656-1.273437c-1.082032-2.933594-4.417969-8.246094-10.535157-14.363282-1.839843-1.839843-3.71875-3.535156-5.582031-5.039062l-.417969-.335938-.53125-.070312c-1.433593-.191406-2.78125-.421875-4.003906-.6875l-2.894531-.632812zm-32.195312 21.539062 1.273437-.46875c2.933594-1.082031 8.246094-4.417969 14.363281-10.539062 1.839844-1.835938 3.535157-3.714844 5.042969-5.582031l.332031-.414063.070313-.53125c.191406-1.433594.421875-2.78125.6875-4.003906l.632813-2.898438-2.894532.632813c-1.222656.269531-2.570312.5-4.007812.6875l-.527344.070312-.417969.335938c-1.863281 1.503906-3.742187 3.199218-5.582031 5.039062-6.117188 6.117188-9.453125 11.433594-10.539062 14.367188l-.46875 1.273437s1.097656.894531 1.117187.914063c.023437.027344.917969 1.117187.917969 1.117187zm47.738281-33.726562c-2.601563 0-5.128906.128906-7.511719.382812l-.53125.054688-.425781.328125c-1.148437.878906-2.265625 1.667968-3.316406 2.34375l-2.496094 1.601562 2.496094 1.601563c1.054687.679687 2.171875 1.46875 3.316406 2.347656l.425781.324219.53125.054687c2.382813.253907 4.910156.382813 7.511719.382813 8.65625 0 14.773437-1.398438 17.609375-2.703125l1.234375-.570313s-.140625-1.410156-.144531-1.4375c.003906-.03125.144531-1.433594.144531-1.433594l-1.234375-.570312c-2.835938-1.308594-8.953125-2.707031-17.609375-2.707031zm-60.355469 6.148437 1.234375.570313c2.839844 1.304687 8.957031 2.703125 17.609375 2.703125 2.597656 0 5.125-.125 7.511719-.382813l.53125-.054687.425781-.324219c1.144532-.878906 2.261719-1.667969 3.316406-2.347656l2.496094-1.601563-2.496094-1.601562c-1.054687-.675782-2.167968-1.464844-3.316406-2.339844l-.421875-.328125-.535156-.054687c-2.382813-.253907-4.910156-.386719-7.511719-.386719-8.65625 0-14.773437 1.398437-17.609375 2.707031l-1.234375.570312s.140625 1.40625.144532 1.4375c0 .027344-.144532 1.433594-.144532 1.433594zm65.3125-29.984375c-2.933594 1.082031-8.25 4.421875-14.367187 10.539063-1.839844 1.839844-3.535157 3.71875-5.039063 5.582031l-.335937.414063-.070313.53125c-.1875 1.4375-.421875 2.785156-.6875 4.003906l-.632812 2.898437 2.898437-.632812c1.222657-.265625 2.570313-.496094 4.003907-.6875l.53125-.070313.414062-.335937c1.867188-1.503907 3.742188-3.199219 5.582031-5.039063 6.121094-6.117187 9.457031-11.433594 10.539063-14.367187l.472656-1.269531s-1.097656-.898438-1.121094-.917969c-.019531-.023438-.914062-1.117188-.914062-1.117188zm-54.730468 1.5625.472656 1.273438c1.082031 2.933593 4.417968 8.25 10.535156 14.367187 1.839844 1.839844 3.71875 3.535156 5.585938 5.039063l.414062.335937.53125.070313c1.433594.1875 2.78125.421875 4.003906.6875l2.898438.632812-.632813-2.898437c-.269531-1.222656-.5-2.570313-.6875-4.003906l-.070312-.53125-.335938-.414063c-1.503906-1.863281-3.199219-3.742187-5.042969-5.582031-6.117187-6.121094-11.429687-9.457032-14.363281-10.539063l-1.273437-.46875s-.894532 1.09375-.914063 1.117188c-.027343.019531-1.121093.914062-1.121093.914062zm27.011718-11.382812c-1.308594 2.839843-2.707031 8.957031-2.707031 17.609375 0 2.601562.132813 5.128906.386719 7.511718l.054687.535157.328125.421875c.875 1.144531 1.664063 2.261718 2.34375 3.320312l1.601563 2.496094 1.601562-2.496094c.679688-1.058594 1.464844-2.175781 2.34375-3.320312l.324219-.421875.058594-.535157c.253906-2.382812.382812-4.910156.382812-7.511718 0-8.652344-1.398437-14.769532-2.707031-17.609375l-.566406-1.230469s-1.410157.140625-1.4375.144531c-.03125-.003906-1.4375-.144531-1.4375-.144531zm0 0" fill="url(#f)"/><path d="m313.222656 415.941406h-11.1875l3.183594-3.183594c.816406-.816406 1.265625-1.902343 1.265625-3.058593s-.449219-2.242188-1.265625-3.058594c-.816406-.820313-1.90625-1.269531-3.0625-1.269531s-2.242188.449218-3.058594 1.269531l-9.304687 9.300781h-9.539063l9.441406-9.441406c.816407-.816406 1.269532-1.90625 1.269532-3.058594 0-1.15625-.453125-2.246094-1.269532-3.0625-.816406-.816406-1.902343-1.265625-3.058593-1.265625s-2.246094.449219-3.0625 1.265625l-14.699219 14.703125c-2.246094-1.757812-5.839844-3.046875-10.734375-3.84375l2.496094-1.0625c2.199219-.933593 3.226562-3.480469 2.292969-5.675781-.453126-1.0625-1.292969-1.886719-2.363282-2.320312-1.074218-.433594-2.25-.421876-3.3125.03125l-1.546875.65625c2.492188-3.632813 3.90625-6.769532 4.226563-9.375h20.789062c2.386719 0 4.328125-1.941407 4.328125-4.328126 0-2.386718-1.941406-4.328124-4.328125-4.328124h-13.351562l6.746094-6.746094h13.15625c2.386718 0 4.328124-1.941406 4.328124-4.328125s-1.941406-4.328125-4.328124-4.328125h-4.5l7.90625-7.910156c.820312-.816407 1.269531-1.902344 1.269531-3.058594s-.449219-2.242188-1.265625-3.058594c-.820313-.820312-1.90625-1.269531-3.0625-1.269531s-2.242188.449219-3.058594 1.269531l-7.910156 7.90625v-4.5c0-2.386719-1.941406-4.328125-4.328125-4.328125s-4.328125 1.941406-4.328125 4.328125v13.15625l-6.746094 6.746094v-13.351563c0-2.386719-1.941406-4.328125-4.328125-4.328125s-4.328125 1.941406-4.328125 4.328125v20.789063c-2.828125.34375-6.277344 1.976562-10.308594 4.875l1.019532-2.519532c.894531-2.210937-.179688-4.738281-2.394532-5.632812-2.214844-.890625-4.738281.183594-5.632812 2.394531l-.628906 1.558594c-.808594-4.332031-2.023438-7.546875-3.640626-9.617187l14.699219-14.699219c.820313-.816407 1.269531-1.90625 1.269531-3.0625 0-1.152344-.449218-2.242188-1.269531-3.058594-.816406-.816406-1.902343-1.265625-3.058593-1.265625s-2.246094.449219-3.0625 1.265625l-9.441407 9.441406v-9.539062l9.304688-9.300781c.816406-.816407 1.265625-1.90625 1.265625-3.0625s-.449219-2.242188-1.265625-3.058594c-.816407-.816406-1.90625-1.265625-3.0625-1.265625s-2.242188.449219-3.058594 1.265625l-3.183594 3.183594v-11.1875c0-2.386719-1.941406-4.328126-4.328125-4.328126-2.386718 0-4.328125 1.941407-4.328125 4.328126v11.1875l-3.179687-3.183594c-.816406-.816406-1.90625-1.265625-3.0625-1.265625s-2.242188.449219-3.058594 1.265625c-.816406.820312-1.269531 1.90625-1.269531 3.0625s.453125 2.242187 1.269531 3.058594l9.300781 9.300781v9.542969l-9.441406-9.441407c-.816406-.820312-1.902344-1.269531-3.058594-1.269531s-2.246093.449219-3.0625 1.269531c-.816406.816407-1.265625 1.902344-1.265625 3.058594s.449219 2.242187 1.265625 3.0625l14.703125 14.699219c-1.757812 2.246094-3.046875 5.839844-3.84375 10.734375l-1.0625-2.496094c-.453125-1.066406-1.292968-1.890625-2.363281-2.324219-1.074219-.429687-2.25-.421875-3.3125.03125s-1.886719 1.292969-2.320313 2.363282c-.433593 1.074218-.421874 2.25.03125 3.3125l.65625 1.542968c-3.632812-2.488281-6.769531-3.902344-9.375-4.222656v-20.789062c0-2.386719-1.941406-4.328126-4.328124-4.328126-2.386719 0-4.328126 1.941407-4.328126 4.328126v13.351562l-6.746093-6.746094v-13.15625c0-2.386718-1.941407-4.328125-4.328125-4.328125-2.386719 0-4.328125 1.941407-4.328125 4.328125v4.5l-7.90625-7.90625c-.816407-.816406-1.90625-1.269531-3.0625-1.269531s-2.242188.453125-3.058594 1.269531-1.269531 1.90625-1.269531 3.058594c0 1.15625.453125 2.246094 1.269531 3.0625l7.910156 7.90625h-4.5c-2.386719 0-4.328125 1.941406-4.328125 4.328125s1.941406 4.328125 4.328125 4.328125h13.15625l6.742188 6.746094h-13.351563c-2.386718 0-4.328125 1.941406-4.328125 4.328125s1.941407 4.328125 4.328125 4.328125h20.789063c.34375 2.832031 1.976562 6.28125 4.875 10.308594l-2.519531-1.019532c-2.210938-.890625-4.738282.183594-5.628907 2.394532-.433593 1.074218-.421875 2.25.027344 3.3125.453125 1.066406 1.292969 1.890624 2.363281 2.320312l1.558594.628906c-4.332031.808594-7.546875 2.027344-9.617188 3.640625l-14.699218-14.699219c-.816406-.816406-1.90625-1.269531-3.0625-1.269531s-2.242188.453125-3.058594 1.269531c-.816406.816407-1.269531 1.90625-1.269531 3.058594 0 1.15625.453125 2.246094 1.269531 3.0625l9.441406 9.441406h-9.539062l-9.300782-9.304687c-.820312-.816406-1.90625-1.265625-3.0625-1.265625s-2.242187.449219-3.058593 1.265625c-.820313.820313-1.269531 1.90625-1.269531 3.0625s.449218 2.242187 1.269531 3.058594l3.179687 3.183593h-11.183594c-2.386718 0-4.328124 1.941407-4.328124 4.328126 0 2.386718 1.941406 4.328124 4.328124 4.328124h11.183594l-3.179687 3.179688c-.820313.820312-1.269531 1.90625-1.269531 3.0625s.449218 2.242188 1.269531 3.058594c.816406.820312 1.902343 1.269531 3.058593 1.269531s2.242188-.449219 3.0625-1.269531l9.300782-9.300782h9.539062l-9.441406 9.441407c-.816406.816406-1.265625 1.902343-1.265625 3.058593s.449219 2.242188 1.265625 3.0625c.820312.816407 1.90625 1.265626 3.0625 1.265626s2.242188-.449219 3.058594-1.265626l14.699218-14.703124c2.246094 1.757812 5.839844 3.042968 10.738282 3.84375l-2.5 1.0625c-2.195313.933593-3.222656 3.480468-2.292969 5.675781.679687 1.597656 2.246094 2.632812 3.984375 2.632812.585938 0 1.15625-.113281 1.691406-.34375l1.546875-.65625c-2.492187 3.632813-3.902343 6.769531-4.222656 9.375h-20.789063c-2.386718 0-4.328124 1.941407-4.328124 4.328125 0 2.386719 1.941406 4.328125 4.328124 4.328125h13.351563l-6.746094 6.746094h-13.15625c-2.386719 0-4.328125 1.941406-4.328125 4.328125 0 2.382812 1.941406 4.324219 4.328125 4.324219h4.5l-7.910156 7.910156c-.816406.816406-1.265625 1.90625-1.265625 3.058594 0 1.160156.449219 2.246093 1.265625 3.0625.816406.816406 1.90625 1.265625 3.0625 1.265625s2.242187-.449219 3.058594-1.265625l7.910156-7.910157v4.5c0 2.386719 1.941406 4.328126 4.328125 4.328126s4.328125-1.941407 4.328125-4.328126v-13.15625l6.742187-6.746093v13.355469c0 2.386718 1.941407 4.328124 4.328126 4.328124 2.386718 0 4.328124-1.941406 4.328124-4.328124v-20.785157c2.828126-.347656 6.28125-1.980469 10.308594-4.882812l-1.015625 2.515625c-.894531 2.214844.179688 4.742187 2.394531 5.632812.515626.210938 1.0625.316406 1.617188.316406 1.773438 0 3.351562-1.0625 4.015625-2.707031l.628906-1.558593c.808594 4.332031 2.023438 7.550781 3.640625 9.617187l-14.699218 14.699219c-.820313.816406-1.269532 1.90625-1.269532 3.0625s.453125 2.242187 1.269532 3.058594c.816406.816406 1.902343 1.269531 3.058593 1.269531s2.246094-.453125 3.0625-1.269531l9.441407-9.441407v9.539063l-9.304688 9.300781c-.816406.816406-1.265625 1.90625-1.265625 3.0625s.449219 2.242187 1.265625 3.058594c.816406.816406 1.90625 1.269531 3.0625 1.269531s2.242188-.453125 3.058594-1.269531l3.183594-3.183594v11.1875c0 2.386719 1.941406 4.328125 4.328124 4.328125 2.382813 0 4.328126-1.941406 4.328126-4.328125v-11.1875l3.179687 3.183594c.816406.816406 1.902344 1.269531 3.0625 1.269531 1.15625 0 2.242187-.453125 3.058594-1.269531.816406-.816407 1.269531-1.90625 1.269531-3.058594 0-1.15625-.453125-2.246094-1.269531-3.0625l-9.300781-9.300781v-9.539063l9.441406 9.4375c.816406.820313 1.902344 1.269531 3.058594 1.269531 1.160156 0 2.246093-.449218 3.0625-1.265624.816406-.820313 1.265624-1.90625 1.265624-3.0625s-.449218-2.242188-1.265624-3.058594l-14.703126-14.699219c1.757813-2.246094 3.046876-5.839844 3.84375-10.738281l1.0625 2.5c.679688 1.601562 2.242188 2.636718 3.984376 2.636718.582031 0 1.152343-.117187 1.691406-.347656 1.0625-.449218 1.886718-1.289062 2.320312-2.363281.433594-1.070313.421875-2.246094-.03125-3.308594l-.652344-1.542969c3.632813 2.492188 6.769532 3.910157 9.371094 4.230469v20.78125c0 2.382813 1.941406 4.328125 4.328125 4.328125s4.328125-1.945312 4.328125-4.328125v-13.355469l6.746094 6.746094v13.15625c0 2.386719 1.941406 4.328125 4.328125 4.328125s4.328125-1.941406 4.328125-4.328125v-4.5l7.90625 7.910156c.816406.816407 1.90625 1.265626 3.0625 1.265626s2.242188-.449219 3.058594-1.265626c.820312-.816406 1.269531-1.90625 1.269531-3.0625 0-1.152343-.449219-2.242187-1.269531-3.058593l-7.910156-7.910157h4.503906c2.382812 0 4.328125-1.941406 4.328125-4.328124 0-2.382813-1.945313-4.324219-4.328125-4.324219h-13.15625l-6.746094-6.746094h13.351562c2.386719 0 4.328126-1.941406 4.328126-4.328125s-1.941407-4.328125-4.328126-4.328125h-20.789062c-.34375-2.832031-1.976562-6.28125-4.875-10.308594l2.519531 1.019531c.515625.207032 1.0625.3125 1.617188.3125 1.773437 0 3.351562-1.0625 4.015625-2.707031.429687-1.074219.421875-2.25-.03125-3.3125-.453125-1.066406-1.292969-1.890625-2.363282-2.320312l-1.554687-.628907c4.328125-.808593 7.546875-2.027343 9.613281-3.644531l14.703125 14.703125c.816407.816406 1.902344 1.265625 3.058594 1.265625s2.242187-.449219 3.058594-1.265625c.816406-.816406 1.269531-1.90625 1.269531-3.0625s-.449219-2.242187-1.269531-3.058594l-9.441407-9.441406h9.539063l9.304687 9.300782c.816407.820312 1.902344 1.269531 3.058594 1.269531s2.242188-.449219 3.058594-1.269531c.816406-.816407 1.269531-1.902344 1.269531-3.058594s-.449219-2.242188-1.269531-3.058594l-3.179688-3.183594h11.183594c2.386719 0 4.328125-1.941406 4.328125-4.328125s-1.945312-4.328125-4.328125-4.328125zm-53.910156 4.328125c-2.992188.710938-7.320312 1.285157-12.738281 1.285157-2.324219 0-4.585938-.105469-6.726563-.320313-.445312-.335937-.882812-.65625-1.316406-.964844.433594-.308593.871094-.628906 1.3125-.964843 2.140625-.210938 4.402344-.320313 6.730469-.320313 5.417969 0 9.746093.574219 12.738281 1.285156zm-19.726562 15.585938c-1.644532-1.644531-3.167969-3.320313-4.527344-4.980469-.078125-.550781-.160156-1.089844-.25-1.613281.523437.085937 1.0625.167969 1.613281.246093 1.660156 1.363282 3.335937 2.886719 4.984375 4.53125 3.828125 3.828126 6.480469 7.296876 8.09375 9.914063-2.617188-1.613281-6.085938-4.269531-9.914062-8.097656zm9.914062-39.269531c-1.613281 2.621093-4.265625 6.085937-8.09375 9.914062-1.648438 1.648438-3.320312 3.171875-4.984375 4.53125-.550781.078125-1.089844.160156-1.613281.25.089844-.527344.171875-1.0625.25-1.613281 1.359375-1.664063 2.882812-3.339844 4.527344-4.984375 3.828124-3.828125 7.296874-6.484375 9.914062-8.097656zm-22.714844 9.65625c-.335937.441406-.660156.878906-.964844 1.3125-.308593-.433594-.632812-.871094-.964843-1.3125-.214844-2.140626-.320313-4.402344-.320313-6.730469 0-5.414063.574219-9.742188 1.285156-12.734375.710938 2.992187 1.285157 7.320312 1.285157 12.734375 0 2.328125-.109375 4.589843-.320313 6.730469zm-1.929687 28.054687c.332031-.441406.65625-.878906.964843-1.3125.304688.433594.628907.871094.964844 1.3125.210938 2.140625.320313 4.402344.320313 6.730469 0 5.414062-.578125 9.742187-1.285157 12.734375-.710937-2.992188-1.285156-7.320313-1.285156-12.734375 0-2.328125.105469-4.589844.320313-6.730469zm-8.027344-5.035156c-.089844.523437-.171875 1.058593-.246094 1.609375-1.363281 1.664062-2.886719 3.339844-4.53125 4.984375-3.828125 3.828125-7.296875 6.480469-9.914062 8.097656 1.613281-2.621094 4.265625-6.085937 8.09375-9.917969 1.648437-1.644531 3.324219-3.167968 4.984375-4.527344.550781-.078124 1.089844-.160156 1.613281-.246093zm-4.777344-24.578125c1.648438 1.648437 3.167969 3.320312 4.53125 4.984375.074219.550781.15625 1.085937.246094 1.613281-.523437-.089844-1.0625-.171875-1.613281-.25-1.660156-1.359375-3.335938-2.882812-4.980469-4.53125-3.828125-3.824219-6.484375-7.292969-8.097656-9.914062 2.617187 1.613281 6.085937 4.269531 9.914062 8.097656zm1.054688 15.585937c-.433594.308594-.871094.628907-1.316407.964844-2.140624.214844-4.402343.320313-6.726562.320313-5.414062 0-9.742188-.574219-12.734375-1.285157 2.992187-.710937 7.320313-1.285156 12.734375-1.285156 2.328125 0 4.589844.109375 6.730469.320313.441406.335937.878906.65625 1.3125.964843zm0 0" fill="url(#g)"/><path d="m225.820312 508.574219c-.5 0-.902343-.40625-.902343-.902344v-19.457031l-9.03125 9.03125c-.230469.230468-.5.265625-.636719.265625-.140625 0-.410156-.035157-.636719-.265625-.230469-.230469-.265625-.496094-.265625-.636719s.035156-.40625.261719-.636719l10.308594-10.304687v-19.230469l-15.292969 15.289062c-.230469.230469-.496094.265626-.636719.265626s-.40625-.035157-.636719-.265626c-.230468-.230468-.265624-.496093-.265624-.636718s.035156-.40625.265624-.636719l17.175782-17.175781-1.53125-1.34375c-2.117188-1.855469-3.710938-7.066406-4.371094-14.296875l-3.660156-.539063-2.78125 6.890625c-.140625.339844-.46875.5625-.839844.5625-.113281 0-.226562-.019531-.335938-.066406-.300781-.121094-.4375-.355469-.492187-.480469-.054687-.128906-.125-.390625-.003906-.691406l3.167969-7.851562-3.003907-2.15625c-5.734375 4.914062-10.746093 7.734374-13.742187 7.734374-.097656 0-.195313-.003906-.289063-.011718l-2.027343-.132813v24.28125c0 .496094-.40625.902344-.902344.902344s-.902344-.40625-.902344-.902344v-21.625l-13.597656 13.597657v14.578124c0 .496094-.40625.902344-.902344.902344s-.902344-.40625-.902344-.902344v-12.773437l-13.757812 13.757813c-.226563.230468-.496094.265624-.636719.265624s-.40625-.035156-.636719-.265624c-.230468-.230469-.265625-.5-.265625-.636719 0-.140625.035157-.410157.265625-.636719l13.757813-13.757812h-12.773438c-.496093 0-.898437-.40625-.898437-.902344s.402344-.902344.898437-.902344h14.578125l13.597656-13.597656h-21.625c-.496093 0-.902343-.40625-.902343-.902344s.40625-.902344.902343-.902344h24.289063l-.132813-2.027344c-.183593-2.8125 2.371094-7.625 7.019532-13.207031l-2.207032-2.96875-6.839843 2.90625c-.113281.050781-.230469.074219-.351563.074219-.363281 0-.6875-.214844-.832031-.550781-.191406-.457031.023437-.988281.476563-1.183594l7.792968-3.308594-.597656-3.652343c-7.8125-.597657-13.417969-2.226563-15.378906-4.464844l-1.339844-1.527344-17.175781 17.175781c-.230469.230469-.5.261719-.636719.261719-.140625 0-.410156-.03125-.636719-.261719-.230469-.230469-.265625-.5-.265625-.636719 0-.140624.035156-.410156.265625-.636718l15.289063-15.292969h-19.230469l-10.304687 10.304687c-.230469.230469-.5.265626-.636719.265626-.140625 0-.410157-.035157-.636719-.265626-.230469-.230468-.265625-.496093-.265625-.636718 0-.136719.035156-.40625.265625-.636719l9.027344-9.03125h-19.453125c-.5 0-.902344-.402344-.902344-.902344 0-.496093.402344-.898437.902344-.898437h19.453125l-9.027344-9.035156c-.230469-.226563-.265625-.496094-.265625-.636719 0-.136719.035156-.40625.265625-.636719.226562-.226562.496094-.261719.636719-.261719.136719 0 .40625.035157.636719.261719l10.304687 10.308594h19.230469l-15.289063-15.292969c-.230469-.230469-.265625-.496094-.265625-.636719s.035156-.40625.265625-.636718c.230469-.230469.496094-.265626.636719-.265626s.40625.035157.636719.265626l17.175781 17.175781 1.339844-1.527344c1.859375-2.121094 7.070312-3.714844 14.300781-4.375l.539063-3.660156-6.890626-2.78125c-.460937-.1875-.683593-.714844-.496093-1.171875.136719-.34375.464843-.566406.835937-.566406.113282 0 .226563.023437.335938.066406l7.851562 3.167968 2.15625-3.003906c-5.097656-5.949218-7.910156-11.0625-7.714844-14.03125l.132813-2.027344h-24.289063c-.496093 0-.902343-.40625-.902343-.902343 0-.496094.40625-.902344.902343-.902344h21.625l-13.597656-13.597656h-14.578125c-.496093 0-.898437-.402344-.898437-.902344 0-.496094.402344-.898437.898437-.898437h12.773438l-13.757813-13.757813c-.230468-.230469-.265625-.5-.265625-.640625 0-.136719.035157-.40625.265625-.636719.230469-.230469.496094-.261719.636719-.261719s.410156.03125.636719.261719l13.757812 13.757813v-12.769532c0-.5.40625-.902343.902344-.902343s.902344.402343.902344.902343v14.574219l13.597656 13.597657v-21.625c0-.496094.40625-.902344.902344-.902344s.902344.40625.902344.902344v24.292968l2.027343-.136718c.097657-.007813.195313-.007813.296875-.007813 2.882813 0 7.464844 2.496094 12.90625 7.027344l2.972656-2.207031-2.90625-6.839844c-.128906-.296875-.058593-.558594-.007812-.6875.054688-.128906.1875-.367188.484375-.492188.113281-.046875.234375-.074218.351563-.074218.363281 0 .6875.214843.832031.550781l3.308593 7.792969 3.652344-.597657c.597656-7.8125 2.226563-13.417969 4.464844-15.378906l1.527344-1.339844-17.175782-17.175781c-.230468-.230469-.261718-.5-.261718-.636719 0-.140625.03125-.410156.261718-.636719.230469-.234374.5-.265624.636719-.265624.140625 0 .410157.03125.636719.261718l15.292969 15.292969v-19.230469l-10.304688-10.308594c-.230469-.226562-.265625-.496093-.265625-.636718 0-.136719.035156-.40625.265625-.632813.226563-.234375.496094-.265625.636719-.265625s.40625.03125.636719.261719l9.03125 9.03125v-19.457031c0-.496094.40625-.898438.902343-.898438.496094 0 .902344.402344.902344.898438v19.457031l9.03125-9.03125c.226563-.230469.496094-.261719.636719-.261719s.40625.03125.636719.261719c.230468.230469.265625.5.265625.636719 0 .140625-.035157.410156-.265625.636718l-10.304688 10.308594v19.230469l15.289063-15.292969c.230469-.230468.5-.261718.640625-.261718.136718 0 .40625.03125.632812.261718.234375.230469.265625.5.265625.640625 0 .136719-.03125.40625-.261719.632813l-17.179687 17.179687 1.53125 1.339844c2.121094 1.855469 3.714844 7.066406 4.375 14.300781l3.660156.539063 2.78125-6.890625c.136719-.34375.464844-.566406.835938-.566406.113281 0 .226562.023437.335937.066406.300782.121094.4375.355468.492188.484375.054687.128906.128906.386719.007812.6875l-3.171875 7.851562 3.003907 2.160157c5.730468-4.910157 10.734374-7.730469 13.738281-7.730469.101562 0 .195312.003906.292969.011719l2.03125.132812v-24.289062c0-.496094.402343-.902344.902343-.902344.496094 0 .898438.40625.898438.902344v21.625l13.597656-13.597657v-14.574219c0-.5.40625-.902343.902344-.902343.496093 0 .902343.402343.902343.902343v12.769532l13.757813-13.757813c.230469-.230469.5-.261719.636719-.261719.140625 0 .410156.03125.636718.261719.230469.230469.265626.5.265626.636719 0 .140625-.035157.410156-.265626.636719l-13.757812 13.761719h12.773438c.496093 0 .902343.402343.902343.898437 0 .5-.40625.902344-.902343.902344h-14.578126l-13.597656 13.597656h21.625c.496094 0 .902344.40625.902344.902344 0 .496093-.40625.902343-.902344.902343h-24.289062l.132812 2.027344c.1875 2.8125-2.371094 7.625-7.019531 13.207032l2.207031 2.96875 6.839844-2.90625c.117188-.050782.234375-.074219.351562-.074219.363282 0 .6875.214843.832032.550781.195312.457031-.019532.988281-.476563 1.179688l-7.792969 3.3125.597657 3.648437c7.8125.601563 13.417969 2.230469 15.378906 4.464844l1.339844 1.53125 17.175781-17.175781c.230469-.230469.5-.265626.636719-.265626.140625 0 .410156.035157.636719.265626.230468.230468.265624.5.265624.636718 0 .140625-.035156.40625-.261718.636719l-15.292969 15.292969h19.230469l10.304687-10.308594c.230469-.226562.5-.261719.636719-.261719.140625 0 .410156.035157.636719.261719.230469.230469.265625.5.265625.640625 0 .136719-.035156.40625-.261719.632813l-9.03125 9.035156h19.457031c.496094 0 .898438.402344.898438.902344 0 .496093-.402344.898437-.898438.898437h-19.457031l9.03125 9.03125c.226563.230469.261719.5.261719.640625 0 .136719-.035156.40625-.261719.632812-.230469.230469-.5.265626-.640625.265626-.136719 0-.40625-.035157-.636719-.265626l-10.304687-10.304687h-19.230469l15.289063 15.292969c.230468.230468.265624.496094.265624.636718 0 .140626-.035156.40625-.265624.636719-.230469.230469-.496094.261719-.636719.261719s-.40625-.03125-.636719-.261719l-17.175781-17.175781-1.339844 1.527344c-1.855469 2.121094-7.070313 3.714844-14.300781 4.375l-.539063 3.660156 6.890625 2.78125c.300782.121094.4375.355469.492188.484375.054687.125.128906.386719.007812.6875-.140625.34375-.46875.566406-.839844.566406-.113281 0-.226562-.023437-.335937-.066406l-7.851563-3.171875-2.15625 3.007812c5.097657 5.949219 7.910157 11.0625 7.714844 14.03125l-.132812 2.027344h24.289062c.496094 0 .902344.40625.902344.902344s-.40625.902344-.902344.902344h-21.625l13.597656 13.597656h14.578126c.496093 0 .902343.402344.902343.898438 0 .5-.40625.902343-.902343.902343h-12.773438l13.757812 13.757813c.230469.230468.265626.5.265626.636718 0 .140626-.035157.410157-.265626.636719-.230468.234375-.496093.265625-.636718.265625s-.40625-.03125-.636719-.261718l-13.757813-13.761719v12.773437c0 .496094-.40625.902344-.902343.902344-.496094 0-.902344-.40625-.902344-.902344v-14.574218l-13.597656-13.597657v21.625c0 .496094-.402344.898438-.902344.898438-.496094 0-.898437-.402344-.898437-.898438v-24.28125l-2.03125.132813c-.09375.003906-.191407.011718-.289063.011718-2.875 0-7.464844-2.5-12.914063-7.039062l-2.96875 2.207031 2.902344 6.835938c.128906.300781.058594.5625.007813.691406-.054688.128906-.183594.367187-.484375.492187-.113282.046876-.230469.070313-.351563.070313-.363281 0-.6875-.214844-.832031-.546875l-3.308594-7.792969-3.652344.597657c-.601562 7.8125-2.226562 13.417968-4.464843 15.378906l-1.527344 1.339844 17.175781 17.175781c.230469.230469.261719.5.261719.636719 0 .140624-.03125.410156-.261719.636718-.230468.230469-.5.265625-.640625.265625-.136719 0-.40625-.035156-.632812-.261719l-15.292969-15.292968v19.230468l10.304688 10.304688c.230468.230469.265624.5.265624.636719 0 .140625-.035156.410156-.265624.636719-.230469.230468-.496094.265624-.636719.265624s-.410157-.035156-.636719-.261718l-9.035156-9.03125v19.457031c.003906.496094-.398438.902344-.894532.902344zm1.433594-48.703125.570313-1.234375c1.308593-2.839844 2.707031-8.957031 2.707031-17.609375 0-2.601563-.128906-5.128906-.382812-7.511719l-.058594-.53125-.324219-.425781c-.878906-1.144532-1.667969-2.261719-2.347656-3.316406l-1.601563-2.496094-1.601562 2.496094c-.679688 1.054687-1.464844 2.171874-2.34375 3.316406l-.324219.425781-.058594.53125c-.253906 2.382813-.382812 4.910156-.382812 7.511719 0 8.652344 1.398437 14.769531 2.707031 17.609375l.566406 1.234375s1.410156-.144532 1.4375-.148438c.035156.003906 1.4375.148438 1.4375.148438zm3.777344-32.125c.265625 1.222656.496094 2.570312.6875 4.003906l.070312.53125.335938.414062c1.503906 1.867188 3.199219 3.746094 5.039062 5.585938 6.117188 6.117188 11.429688 9.453125 14.363282 10.535156l1.273437.472656s.898438-1.097656.914063-1.121093c.027344-.019531 1.121094-.914063 1.121094-.914063l-.472657-1.273437c-1.082031-2.933594-4.417969-8.246094-10.539062-14.363281-1.835938-1.839844-3.714844-3.535157-5.582031-5.039063l-.414063-.335937-.53125-.070313c-1.433594-.191406-2.78125-.421875-4.003906-.6875l-2.898438-.632813zm-32.195312 21.539062 1.273437-.46875c2.933594-1.082031 8.246094-4.417968 14.363281-10.539062 1.839844-1.835938 3.535156-3.714844 5.042969-5.582032l.332031-.414062.070313-.53125c.191406-1.433594.421875-2.78125.6875-4.003906l.632812-2.898438-2.894531.632813c-1.222656.265625-2.570312.496093-4.007812.6875l-.527344.070312-.417969.335938c-1.863281 1.503906-3.742187 3.199219-5.582031 5.039062-6.117188 6.117188-9.453125 11.429688-10.539063 14.363281l-.46875 1.273438s1.097657.898438 1.117188.914062c.023437.03125.917969 1.121094.917969 1.121094zm47.738281-33.726562c-2.601563 0-5.128907.128906-7.511719.382812l-.53125.054688-.425781.328125c-1.148438.878906-2.265625 1.667969-3.316407 2.34375l-2.496093 1.601562 2.496093 1.601563c1.054688.679687 2.171876 1.46875 3.316407 2.347656l.425781.324219.53125.054687c2.382812.253906 4.910156.382813 7.511719.382813 8.65625 0 14.773437-1.398438 17.609375-2.703125l1.234375-.570313s-.140625-1.410156-.144531-1.4375c.003906-.03125.144531-1.433593.144531-1.433593l-1.234375-.570313c-2.835938-1.308594-8.953125-2.707031-17.609375-2.707031zm-60.355469 6.148437 1.234375.566407c2.835937 1.308593 8.953125 2.707031 17.609375 2.707031 2.597656 0 5.125-.128907 7.507812-.382813l.535157-.054687.421875-.324219c1.148437-.882812 2.265625-1.671875 3.320312-2.347656l2.496094-1.601563-2.496094-1.601562c-1.054687-.675781-2.167968-1.464844-3.316406-2.34375l-.425781-.324219-.53125-.058594c-2.382813-.253906-4.910157-.382812-7.511719-.382812-8.65625 0-14.773438 1.398437-17.613281 2.707031l-1.230469.566406s.140625 1.410157.144531 1.4375c-.003906.03125-.144531 1.4375-.144531 1.4375zm65.308594-29.984375c-2.933594 1.082032-8.246094 4.421875-14.363282 10.539063-1.839843 1.839843-3.535156 3.71875-5.039062 5.582031l-.335938.414062-.070312.53125c-.191406 1.4375-.421875 2.785157-.6875 4.003907l-.632812 2.898437 2.898437-.632812c1.222656-.265625 2.566406-.496094 4.003906-.6875l.53125-.070313.414063-.332031c1.863281-1.507812 3.742187-3.203125 5.582031-5.042969 6.117187-6.117187 9.457031-11.429687 10.539063-14.363281l.46875-1.273438s-1.09375-.898437-1.117188-.914062c-.019531-.027344-.914062-1.121094-.914062-1.121094zm-54.726563 1.5625.46875 1.273438c1.085938 2.933594 4.421875 8.25 10.539063 14.367187 1.839844 1.839844 3.71875 3.535157 5.582031 5.039063l.417969.335937.527344.070313c1.4375.1875 2.785156.421875 4.007812.6875l2.894531.632812-.632812-2.898437c-.265625-1.222657-.496094-2.570313-.6875-4.003907l-.070313-.53125-.332031-.414062c-1.507813-1.867188-3.203125-3.746094-5.042969-5.585938-6.117187-6.117187-11.429687-9.453124-14.363281-10.535156l-1.273437-.472656s-.898438 1.097656-.914063 1.121094c-.027344.019531-1.121094.914062-1.121094.914062zm27.011719-11.382812c-1.308594 2.839844-2.707031 8.957031-2.707031 17.609375 0 2.601562.132812 5.128906.386719 7.511719l.054687.53125.328125.425781c.875 1.144531 1.664062 2.261719 2.34375 3.316406l1.601562 2.496094 1.601563-2.496094c.679687-1.054687 1.464844-2.171875 2.34375-3.316406l.324219-.425781.058594-.53125c.253906-2.382813.382812-4.910157.382812-7.511719 0-8.652344-1.398438-14.769531-2.707031-17.609375l-.566407-1.234375s-1.410156.144531-1.4375.148437c-.03125-.003906-1.4375-.148437-1.4375-.148437zm0 0" fill="url(#h)"/></svg>