<svg id="Capa_1" enable-background="new 0 0 512 512" height="512" viewBox="0 0 512 512" width="512" xmlns="http://www.w3.org/2000/svg" xmlns:xlink="http://www.w3.org/1999/xlink"><linearGradient id="SVGID_1_" gradientUnits="userSpaceOnUse" x1="256" x2="256" y1="512" y2="62"><stop offset="0" stop-color="#5558ff"/><stop offset="1" stop-color="#00c0ff"/></linearGradient><linearGradient id="SVGID_2_" gradientUnits="userSpaceOnUse" x1="256" x2="256" y1="445.95" y2="0"><stop offset="0" stop-color="#addcff"/><stop offset=".5028" stop-color="#eaf6ff"/><stop offset="1" stop-color="#eaf6ff"/></linearGradient><g><g><path d="m396.22 99.42c-9.07-6.9-19.16-12.78-30.189-17.71-30.151-13.45-67.361-19.71-110.031-19.71-42.7 0-79.91 6.26-110.05 19.71-11.04 4.92-21.13 10.81-30.19 17.7-35.02 26.63-54.76 68.29-54.76 127.59 0 6.83.37 13.67 1.1 20.5 1.09 10.4 3 20.78 5.62 31.1 6.07 23.92 16 47.51 28.65 70.21 4.84 8.68 10.08 17.24 15.66 25.63 11.35 17.07 24.09 33.46 37.69 48.9 6.87 7.79 13.95 15.34 21.19 22.61 24.72 24.85 51.21 46.49 76.77 63.53 5.04 3.36 11.6 3.36 16.64 0 25.36-16.9 51.9-38.55 76.75-63.53 7.23-7.27 14.32-14.82 21.2-22.62 13.59-15.42 26.34-31.81 37.71-48.9 5.57-8.38 10.82-16.93 15.66-25.62 12.64-22.66 22.57-46.24 28.65-70.2 2.62-10.31 4.52-20.7 5.61-31.11.73-6.83 1.1-13.66 1.1-20.5 0-59.3-19.76-100.96-54.78-127.58z" fill="url(#SVGID_1_)"/></g><g><g><path d="m301 64.62v-49.62c0-8.284-6.716-15-15-15h-60c-8.284 0-15 6.716-15 15v49.617c14.199-1.756 29.222-2.617 45-2.617 15.775 0 30.798.861 45 2.62zm143.29 213.99c2.62-10.31 4.52-20.7 5.61-31.11l-162.58-88.68 108.9-59.4c-9.07-6.9-19.16-12.78-30.189-17.71l-110.031 60.02-110.05-60.02c-11.04 4.92-21.13 10.81-30.19 17.7l108.92 59.41-162.58 88.68c1.09 10.4 3 20.78 5.62 31.1l78.28-42.7 78.68 42.92-128.31 69.99c4.84 8.68 10.08 17.24 15.66 25.63l48.97-26.72 63.68 34.73-74.96 40.89c6.87 7.79 13.95 15.34 21.19 22.61l85.09-46.41 85.07 46.41c7.23-7.27 14.32-14.82 21.2-22.62l-74.95-40.88 63.68-34.73 48.98 26.71c5.57-8.38 10.82-16.93 15.66-25.62l-128.32-69.99 78.68-42.92zm-124.62 52.03-63.67 34.73-63.68-34.73 63.68-34.74zm-63.67-68.91-78.68-42.91 78.68-42.92 78.68 42.92z" fill="url(#SVGID_2_)"/></g></g></g></svg>