<svg id="Capa_1" enable-background="new 0 0 512 512" height="512" viewBox="0 0 512 512" width="512" xmlns="http://www.w3.org/2000/svg"><g><path d="m326 16h-25.064v-1c0-8.28-6.72-15-15-15-8.29 0-15 6.72-15 15v1h-24.936c-30.327 0-55 24.673-55 55v15.38h190v-15.38c0-30.327-24.673-55-55-55z" fill="#a1edff"/><path d="m381 71v15.38h-95v-86.38c8.25.03 14.94 6.74 14.94 15v1h25.06c30.33 0 55 24.67 55 55z" fill="#79d9ff"/><path d="m411 76.38h-238c-13.32 0-20.05 16.16-10.61 25.61l33.94 33.93 5.221 42.695c59.949-34.615 143.949 49.385 167.842 8.651l9.887-80.886h16.72v75.62c0 8.28 6.72 15 15 15s15-6.72 15-15v-90.62c0-8.28-6.72-15-15-15z" fill="#f0f7ff"/><path d="m426 91.38v90.62c0 8.28-6.72 15-15 15s-15-6.72-15-15v-75.62h-16.72l-9.89 80.89c-13.56 23.12-46.49 6.05-83.39-6.7v-104.19h125c8.28 0 15 6.72 15 15z" fill="#dfe7f4"/><path d="m201.551 178.615 13.809 112.925 141.35-.51 12.683-103.764c-41.572 25.277-115.175-54.353-167.842-8.651z" fill="#ff6c72"/><path d="m369.39 187.27-12.68 103.76-70.71.26v-117.32c31.49 11.21 61.77 26.44 83.39 13.3z" fill="#f13c5b"/><path d="m384.562 495.684c-1.082-12.28-16.358-185.666-17.357-197-.682-7.744-7.168-13.684-14.942-13.684h-131.537c-7.77 0-14.253 5.933-14.941 13.672-.689 7.758-7.119 80.122-8.115 91.328l-100.562 27.016c-6.553 1.76-11.108 7.701-11.108 14.486v65.498c0 8.284 6.716 15 15 15h268.62c8.804 0 15.715-7.547 14.942-16.316z" fill="#f0f7ff"/><path d="m384.56 495.68c-1.082-12.28-16.352-185.666-17.35-197-.69-7.74-7.17-13.68-14.95-13.68h-66.26v227h83.62c8.8 0 15.72-7.55 14.94-16.32z" fill="#dfe7f4"/><circle cx="286" cy="426.5" fill="#a1edff" r="40"/><path d="m326 426.5c0 22.06-17.94 40-40 40v-80c22.06 0 40 17.94 40 40z" fill="#79d9ff"/></g></svg>